<?xml version="1.0" encoding="UTF-8"?>
<!DOCTYPE svg PUBLIC "-//W3C//DTD SVG 1.1//EN" "http://www.w3.org/Graphics/SVG/1.1/DTD/svg11.dtd">
<svg xmlns="http://www.w3.org/2000/svg" version="1.1" width="300px" height="249px" style="shape-rendering:geometricPrecision; text-rendering:geometricPrecision; image-rendering:optimizeQuality; fill-rule:evenodd; clip-rule:evenodd" xmlns:xlink="http://www.w3.org/1999/xlink">
<g><path style="opacity:0.993" fill="#e7f8fb" d="M 131.5,-0.5 C 133.5,-0.5 135.5,-0.5 137.5,-0.5C 141.705,1.36378 145.372,4.03045 148.5,7.5C 147.85,7.80393 147.183,8.13727 146.5,8.5C 142.787,7.22637 139.287,5.55971 136,3.5C 134.715,3.95043 133.548,4.6171 132.5,5.5C 131.914,5.29069 131.414,4.95735 131,4.5C 129.169,6.85454 127.003,8.18788 124.5,8.5C 125.309,10.0709 125.643,11.7376 125.5,13.5C 122.148,13.47 119.482,12.1367 117.5,9.5C 118.29,8.20577 119.29,7.0391 120.5,6C 124.096,3.53937 127.763,1.3727 131.5,-0.5 Z"/></g>
<g><path style="opacity:0.999" fill="#fbfdfc" d="M 148.5,7.5 C 148.598,13.0933 151.598,15.76 157.5,15.5C 157.286,17.1439 157.62,18.6439 158.5,20C 162.318,23.3176 165.985,26.8176 169.5,30.5C 178.207,34.381 185.207,40.2144 190.5,48C 187.592,51.7904 183.926,54.6237 179.5,56.5C 176.701,53.9307 173.701,51.5974 170.5,49.5C 165.732,46.5802 161.066,43.4135 156.5,40C 155.167,38.3333 153.833,36.6667 152.5,35C 144.507,29.6587 136.84,23.992 129.5,18C 127.959,16.6288 126.625,15.1288 125.5,13.5C 125.643,11.7376 125.309,10.0709 124.5,8.5C 127.003,8.18788 129.169,6.85454 131,4.5C 131.414,4.95735 131.914,5.29069 132.5,5.5C 133.548,4.6171 134.715,3.95043 136,3.5C 139.287,5.55971 142.787,7.22637 146.5,8.5C 147.183,8.13727 147.85,7.80393 148.5,7.5 Z"/></g>
<g><path style="opacity:1" fill="#94b9d8" d="M 114.5,12.5 C 118.066,13.5957 121.732,14.7624 125.5,16C 127.598,18.854 129.931,21.5206 132.5,24C 143.4,32.7506 154.067,41.5839 164.5,50.5C 162.61,50.7035 161.11,50.0368 160,48.5C 158.795,49.0712 157.628,49.7379 156.5,50.5C 158.51,51.0653 160.176,52.0653 161.5,53.5C 160.212,56.0335 160.212,58.5335 161.5,61C 160.552,61.4828 159.552,61.6495 158.5,61.5C 158.238,62.9778 158.571,64.3112 159.5,65.5C 160.086,65.2907 160.586,64.9574 161,64.5C 160.755,70.873 163.255,74.873 168.5,76.5C 167.675,77.3857 166.675,77.719 165.5,77.5C 165.281,78.675 165.614,79.675 166.5,80.5C 171.24,82.2939 174.407,85.6272 176,90.5C 175.797,93.9299 175.297,97.0965 174.5,100C 176.679,101.987 178.512,101.82 180,99.5C 181.402,101.973 182.902,101.973 184.5,99.5C 185.183,99.8627 185.85,100.196 186.5,100.5C 186.167,101.167 185.833,101.833 185.5,102.5C 182.692,103.929 179.692,104.595 176.5,104.5C 174.407,103.955 172.407,103.122 170.5,102C 158.248,91.2403 145.581,81.0736 132.5,71.5C 132.5,70.8333 132.167,70.5 131.5,70.5C 126.493,70.7509 121.493,71.0843 116.5,71.5C 116.5,71.1667 116.5,70.8333 116.5,70.5C 120.059,67.5548 124.059,66.7215 128.5,68C 127.934,67.0053 127.267,66.172 126.5,65.5C 125.71,64.5987 124.71,63.9321 123.5,63.5C 114.028,49.9411 109.695,34.9411 110.5,18.5C 110.845,15.8021 112.178,13.8021 114.5,12.5 Z"/></g>
<g><path style="opacity:0.995" fill="#e9f8fc" d="M 148.5,7.5 C 157.987,14.4901 167.321,21.6568 176.5,29C 178.373,30.7038 180.04,32.5372 181.5,34.5C 186.922,39.5846 191.589,45.2512 195.5,51.5C 193.178,55.1737 190.345,56.1737 187,54.5C 185.89,56.0368 184.39,56.7035 182.5,56.5C 182.5,57.5 182.5,58.5 182.5,59.5C 180.801,59.6602 179.134,59.4935 177.5,59C 174.949,55.9556 172.616,52.7889 170.5,49.5C 173.701,51.5974 176.701,53.9307 179.5,56.5C 183.926,54.6237 187.592,51.7904 190.5,48C 185.207,40.2144 178.207,34.381 169.5,30.5C 165.985,26.8176 162.318,23.3176 158.5,20C 157.62,18.6439 157.286,17.1439 157.5,15.5C 151.598,15.76 148.598,13.0933 148.5,7.5 Z"/></g>
<g><path style="opacity:0.991" fill="#95ebfd" d="M 257.5,73.5 C 257.832,64.4754 257.498,55.4754 256.5,46.5C 255.14,47.1799 253.807,47.8466 252.5,48.5C 252.167,48.5 251.833,48.5 251.5,48.5C 240.068,40.2481 228.734,31.7481 217.5,23C 215.182,21.0073 212.516,19.8406 209.5,19.5C 209.5,28.1667 209.5,36.8333 209.5,45.5C 208.343,36.6762 208.176,27.6762 209,18.5C 212.648,16.3445 216.481,16.1779 220.5,18C 233.263,26.4646 245.763,35.2979 258,44.5C 259.112,49.2232 259.612,54.0565 259.5,59C 259.333,63.1667 259.167,67.3333 259,71.5C 258.722,72.4158 258.222,73.0825 257.5,73.5 Z"/></g>
<g><path style="opacity:0.637" fill="#9fe4db" d="M 85.5,52.5 C 85.1667,52.5 84.8333,52.5 84.5,52.5C 85.1364,43.4355 84.4698,34.7688 82.5,26.5C 81.8333,26.1667 81.1667,25.8333 80.5,25.5C 80.2089,24.3509 79.3756,23.6842 78,23.5C 74.3754,24.127 71.5421,25.9603 69.5,29C 65.6309,31.0144 61.6309,32.8478 57.5,34.5C 62.5898,30.4432 67.9231,26.6098 73.5,23C 76.8333,22.3333 80.1667,22.3333 83.5,23C 84.8932,24.1711 85.7265,25.6711 86,27.5C 86.7047,35.8611 86.5381,44.1944 85.5,52.5 Z"/></g>
<g><path style="opacity:1" fill="#a5f0b9" d="M 80.5,25.5 C 75.8369,26.1445 72.1703,28.4779 69.5,32.5C 59.6311,37.0849 50.6311,42.7516 42.5,49.5C 42.1667,49.5 41.8333,49.5 41.5,49.5C 41.5,49.1667 41.5,48.8333 41.5,48.5C 41.5,47.5 41.5,46.5 41.5,45.5C 47.5372,42.8181 52.8705,39.1514 57.5,34.5C 61.6309,32.8478 65.6309,31.0144 69.5,29C 71.5421,25.9603 74.3754,24.127 78,23.5C 79.3756,23.6842 80.2089,24.3509 80.5,25.5 Z"/></g>
<g><path style="opacity:0.808" fill="#a0e8da" d="M 57.5,34.5 C 52.8705,39.1514 47.5372,42.8181 41.5,45.5C 41.9371,43.9256 42.9371,42.7589 44.5,42C 48.9968,39.6444 53.3302,37.1444 57.5,34.5 Z"/></g>
<g><path style="opacity:0.991" fill="#a4f4aa" d="M 80.5,25.5 C 81.1667,25.8333 81.8333,26.1667 82.5,26.5C 82.5,26.8333 82.5,27.1667 82.5,27.5C 70.5458,34.8174 58.8791,42.6507 47.5,51C 45.735,51.6397 44.0683,51.4731 42.5,50.5C 42.5,50.1667 42.5,49.8333 42.5,49.5C 50.6311,42.7516 59.6311,37.0849 69.5,32.5C 72.1703,28.4779 75.8369,26.1445 80.5,25.5 Z"/></g>
<g><path style="opacity:1" fill="#2ca4de" d="M 251.5,48.5 C 251.833,48.5 252.167,48.5 252.5,48.5C 253.471,57.4161 253.804,66.4161 253.5,75.5C 253.44,76.0431 253.107,76.3764 252.5,76.5C 250.64,75.7401 248.973,74.7401 247.5,73.5C 248.454,66.2413 245.787,60.7413 239.5,57C 233.916,53.8422 228.249,53.6755 222.5,56.5C 221.516,54.5201 220.183,52.8534 218.5,51.5C 216.637,49.1394 214.637,46.9727 212.5,45C 211.319,37.7898 211.319,30.2898 212.5,22.5C 223.203,30.2755 234.036,37.9422 245,45.5C 246.978,46.9056 249.145,47.9056 251.5,48.5 Z"/></g>
<g><path style="opacity:1" fill="#bae1f9" d="M 110.5,18.5 C 109.695,34.9411 114.028,49.9411 123.5,63.5C 116.72,62.8606 110.72,64.6939 105.5,69C 102.883,69.8215 100.216,70.3215 97.5,70.5C 97.811,60.9703 93.1443,56.3036 83.5,56.5C 83.5,56.1667 83.5,55.8333 83.5,55.5C 84.1098,54.609 84.4431,53.609 84.5,52.5C 84.8333,52.5 85.1667,52.5 85.5,52.5C 85.4346,52.9382 85.6012,53.2716 86,53.5C 94.1756,48.0791 102.176,42.4124 110,36.5C 110.499,30.5092 110.666,24.5092 110.5,18.5 Z"/></g>
<g><path style="opacity:0.997" fill="#b3e3f9" d="M 181.5,34.5 C 190.919,38.0415 199.586,42.8749 207.5,49C 208.635,49.7494 209.635,49.5827 210.5,48.5C 209.873,47.5832 209.539,46.5832 209.5,45.5C 212.013,48.2546 215.013,50.2546 218.5,51.5C 220.183,52.8534 221.516,54.5201 222.5,56.5C 222.5,56.8333 222.5,57.1667 222.5,57.5C 220.225,58.1112 218.559,59.4446 217.5,61.5C 215.612,60.0603 213.945,58.3936 212.5,56.5C 211.672,57.4147 210.672,58.0814 209.5,58.5C 205.795,57.5001 203.795,55.1668 203.5,51.5C 201.09,50.5615 198.756,50.5615 196.5,51.5C 196.167,51.5 195.833,51.5 195.5,51.5C 191.589,45.2512 186.922,39.5846 181.5,34.5 Z"/></g>
<g><path style="opacity:1" fill="#3fa8d3" d="M 251.5,48.5 C 249.145,47.9056 246.978,46.9056 245,45.5C 234.036,37.9422 223.203,30.2755 212.5,22.5C 211.319,30.2898 211.319,37.7898 212.5,45C 214.637,46.9727 216.637,49.1394 218.5,51.5C 215.013,50.2546 212.013,48.2546 209.5,45.5C 209.5,36.8333 209.5,28.1667 209.5,19.5C 212.516,19.8406 215.182,21.0073 217.5,23C 228.734,31.7481 240.068,40.2481 251.5,48.5 Z"/></g>
<g><path style="opacity:1" fill="#5fb986" d="M 82.5,26.5 C 84.4698,34.7688 85.1364,43.4355 84.5,52.5C 84.4431,53.609 84.1098,54.609 83.5,55.5C 74.4825,58.318 72.3158,55.6513 77,47.5C 78.5655,46.9394 79.8989,47.6061 81,49.5C 81.7718,43.2944 81.6051,37.1278 80.5,31C 81.4295,29.9231 82.0962,28.7564 82.5,27.5C 82.5,27.1667 82.5,26.8333 82.5,26.5 Z"/></g>
<g><path style="opacity:0.999" fill="#bcdff7" d="M 217.5,61.5 C 217.216,63.4147 217.549,65.0813 218.5,66.5C 218.893,68.2838 219.559,69.9505 220.5,71.5C 219.102,72.7767 218.436,74.4434 218.5,76.5C 219.104,79.9756 220.104,83.3089 221.5,86.5C 221.5,87.1667 221.167,87.5 220.5,87.5C 218.041,89.052 216.541,91.3854 216,94.5C 215.5,94 215,93.5 214.5,93C 215.517,91.9505 215.684,90.7839 215,89.5C 214.059,87.2279 212.726,85.2279 211,83.5C 209.166,86.7335 206.999,87.0668 204.5,84.5C 203.824,85.6016 203.158,86.6016 202.5,87.5C 202.666,81.4908 202.499,75.4908 202,69.5C 198.758,72.2055 195.258,74.5388 191.5,76.5C 190.099,78.2773 188.599,79.944 187,81.5C 182.876,76.5821 180.376,70.9154 179.5,64.5C 181.14,65.3201 182.807,66.1534 184.5,67C 183.346,67.9138 183.513,68.7471 185,69.5C 189.015,67.1273 192.682,64.4607 196,61.5C 197.768,62.1312 198.935,61.2979 199.5,59C 198.349,56.5351 197.349,54.0351 196.5,51.5C 198.756,50.5615 201.09,50.5615 203.5,51.5C 203.795,55.1668 205.795,57.5001 209.5,58.5C 210.672,58.0814 211.672,57.4147 212.5,56.5C 213.945,58.3936 215.612,60.0603 217.5,61.5 Z"/></g>
<g><path style="opacity:1" fill="#5cba7b" d="M 82.5,27.5 C 82.0962,28.7564 81.4295,29.9231 80.5,31C 81.6051,37.1278 81.7718,43.2944 81,49.5C 79.8989,47.6061 78.5655,46.9394 77,47.5C 72.3158,55.6513 74.4825,58.318 83.5,55.5C 83.5,55.8333 83.5,56.1667 83.5,56.5C 82.5084,56.3284 81.8417,56.6618 81.5,57.5C 80.0048,57.9887 78.6715,58.6554 77.5,59.5C 76.8333,59.5 76.1667,59.5 75.5,59.5C 72.2099,61.1236 69.5433,63.4569 67.5,66.5C 65.7808,69.8586 64.6141,73.5253 64,77.5C 62.3821,74.8789 60.3821,72.5455 58,70.5C 55.8333,72 53.6667,73.5 51.5,75C 49.4325,75.6869 47.4325,75.5202 45.5,74.5C 43.8385,66.6202 42.8385,58.6202 42.5,50.5C 44.0683,51.4731 45.735,51.6397 47.5,51C 58.8791,42.6507 70.5458,34.8174 82.5,27.5 Z"/></g>
<g><path style="opacity:1" fill="#9abedd" d="M 164.5,50.5 C 170.134,54.4671 175.134,59.1338 179.5,64.5C 180.376,70.9154 182.876,76.5821 187,81.5C 188.599,79.944 190.099,78.2773 191.5,76.5C 195.258,74.5388 198.758,72.2055 202,69.5C 202.499,75.4908 202.666,81.4908 202.5,87.5C 199.925,91.7469 196.592,95.4136 192.5,98.5C 196.328,101.156 198.328,104.823 198.5,109.5C 197.395,111.713 197.395,113.88 198.5,116C 197.5,117 196.5,118 195.5,119C 190.192,119.83 184.859,120.33 179.5,120.5C 183.576,119.239 187.743,117.906 192,116.5C 195.771,113.726 197.105,110.059 196,105.5C 194.924,102.921 193.091,101.254 190.5,100.5C 190.631,99.6236 190.298,98.9569 189.5,98.5C 188.482,99.1925 187.482,99.8592 186.5,100.5C 185.85,100.196 185.183,99.8627 184.5,99.5C 182.902,101.973 181.402,101.973 180,99.5C 178.512,101.82 176.679,101.987 174.5,100C 175.297,97.0965 175.797,93.9299 176,90.5C 174.407,85.6272 171.24,82.2939 166.5,80.5C 165.614,79.675 165.281,78.675 165.5,77.5C 166.675,77.719 167.675,77.3857 168.5,76.5C 163.255,74.873 160.755,70.873 161,64.5C 160.586,64.9574 160.086,65.2907 159.5,65.5C 158.571,64.3112 158.238,62.9778 158.5,61.5C 159.552,61.6495 160.552,61.4828 161.5,61C 160.212,58.5335 160.212,56.0335 161.5,53.5C 160.176,52.0653 158.51,51.0653 156.5,50.5C 157.628,49.7379 158.795,49.0712 160,48.5C 161.11,50.0368 162.61,50.7035 164.5,50.5 Z"/></g>
<g><path style="opacity:1" fill="#1a5480" d="M 247.5,73.5 C 247.167,73.5 246.833,73.5 246.5,73.5C 246.799,71.396 246.466,69.396 245.5,67.5C 243.763,66.1026 242.429,64.4359 241.5,62.5C 240.647,59.4821 238.647,57.6488 235.5,57C 231.141,56.4657 226.808,56.6324 222.5,57.5C 222.5,57.1667 222.5,56.8333 222.5,56.5C 228.249,53.6755 233.916,53.8422 239.5,57C 245.787,60.7413 248.454,66.2413 247.5,73.5 Z"/></g>
<g><path style="opacity:1" fill="#bf8666" d="M 81.5,57.5 C 84.2282,57.1706 86.5615,57.8372 88.5,59.5C 84.8333,59.5 81.1667,59.5 77.5,59.5C 78.6715,58.6554 80.0048,57.9887 81.5,57.5 Z"/></g>
<g><path style="opacity:1" fill="#395373" d="M 241.5,62.5 C 237.02,64.8301 232.187,66.1635 227,66.5C 224.287,66.589 221.787,65.9224 219.5,64.5C 218.702,64.9569 218.369,65.6236 218.5,66.5C 217.549,65.0813 217.216,63.4147 217.5,61.5C 218.559,59.4446 220.225,58.1112 222.5,57.5C 226.808,56.6324 231.141,56.4657 235.5,57C 238.647,57.6488 240.647,59.4821 241.5,62.5 Z"/></g>
<g><path style="opacity:0.196" fill="#82d8da" d="M 41.5,45.5 C 41.5,46.5 41.5,47.5 41.5,48.5C 40.342,57.9911 40.1754,67.6578 41,77.5C 41.7172,78.0442 42.2172,78.7109 42.5,79.5C 41.5041,79.5858 40.6708,79.2524 40,78.5C 39.3333,67.8333 39.3333,57.1667 40,46.5C 40.3826,45.944 40.8826,45.6107 41.5,45.5 Z"/></g>
<g><path style="opacity:1" fill="#5fc6ef" d="M 257.5,73.5 C 257.167,74.5 256.5,75.1667 255.5,75.5C 254.833,75.5 254.167,75.5 253.5,75.5C 253.804,66.4161 253.471,57.4161 252.5,48.5C 253.807,47.8466 255.14,47.1799 256.5,46.5C 257.498,55.4754 257.832,64.4754 257.5,73.5 Z"/></g>
<g><path style="opacity:1" fill="#b77768" d="M 88.5,59.5 C 94.2811,60.9424 96.9478,64.609 96.5,70.5C 96.5,70.8333 96.5,71.1667 96.5,71.5C 96.1667,71.5 95.8333,71.5 95.5,71.5C 94.8333,71.5 94.5,71.1667 94.5,70.5C 94.6621,68.4727 94.4955,66.4727 94,64.5C 91.6246,63.2853 89.7912,61.6186 88.5,59.5 Z"/></g>
<g><path style="opacity:1" fill="#d7cfd4" d="M 81.5,57.5 C 81.8417,56.6618 82.5084,56.3284 83.5,56.5C 93.1443,56.3036 97.811,60.9703 97.5,70.5C 97.1667,70.5 96.8333,70.5 96.5,70.5C 96.9478,64.609 94.2811,60.9424 88.5,59.5C 86.5615,57.8372 84.2282,57.1706 81.5,57.5 Z"/></g>
<g><path style="opacity:1" fill="#d3e3f3" d="M 117.5,9.5 C 119.482,12.1367 122.148,13.47 125.5,13.5C 126.625,15.1288 127.959,16.6288 129.5,18C 136.84,23.992 144.507,29.6587 152.5,35C 153.833,36.6667 155.167,38.3333 156.5,40C 161.066,43.4135 165.732,46.5802 170.5,49.5C 172.616,52.7889 174.949,55.9556 177.5,59C 179.134,59.4935 180.801,59.6602 182.5,59.5C 182.5,58.5 182.5,57.5 182.5,56.5C 184.39,56.7035 185.89,56.0368 187,54.5C 190.345,56.1737 193.178,55.1737 195.5,51.5C 195.833,51.5 196.167,51.5 196.5,51.5C 197.349,54.0351 198.349,56.5351 199.5,59C 198.935,61.2979 197.768,62.1312 196,61.5C 192.682,64.4607 189.015,67.1273 185,69.5C 183.513,68.7471 183.346,67.9138 184.5,67C 182.807,66.1534 181.14,65.3201 179.5,64.5C 175.134,59.1338 170.134,54.4671 164.5,50.5C 154.067,41.5839 143.4,32.7506 132.5,24C 129.931,21.5206 127.598,18.854 125.5,16C 121.732,14.7624 118.066,13.5957 114.5,12.5C 114.856,10.8102 115.856,9.81018 117.5,9.5 Z"/></g>
<g><path style="opacity:1" fill="#876239" d="M 75.5,59.5 C 74.075,60.922 73.075,62.5887 72.5,64.5C 71.1228,66.2895 70.1228,68.2895 69.5,70.5C 68.5233,73.2869 68.19,76.2869 68.5,79.5C 67.8333,79.5 67.5,79.8333 67.5,80.5C 67.1667,80.5 66.8333,80.5 66.5,80.5C 66.5,79.1667 66.5,77.8333 66.5,76.5C 66.4595,73.1194 66.7929,69.7861 67.5,66.5C 69.5433,63.4569 72.2099,61.1236 75.5,59.5 Z"/></g>
<g><path style="opacity:1" fill="#e3724d" d="M 75.5,59.5 C 76.1667,59.5 76.8333,59.5 77.5,59.5C 81.1667,59.5 84.8333,59.5 88.5,59.5C 89.7912,61.6186 91.6246,63.2853 94,64.5C 94.4955,66.4727 94.6621,68.4727 94.5,70.5C 94.1667,70.5 93.8333,70.5 93.5,70.5C 90.1326,70.4571 86.7992,70.7904 83.5,71.5C 79.4455,69.8892 76.2788,67.2225 74,63.5C 73.6174,64.056 73.1174,64.3893 72.5,64.5C 73.075,62.5887 74.075,60.922 75.5,59.5 Z"/></g>
<g><path style="opacity:1" fill="#58b486" d="M 41.5,49.5 C 41.8333,49.5 42.1667,49.5 42.5,49.5C 42.5,49.8333 42.5,50.1667 42.5,50.5C 42.8385,58.6202 43.8385,66.6202 45.5,74.5C 47.4325,75.5202 49.4325,75.6869 51.5,75C 53.6667,73.5 55.8333,72 58,70.5C 60.3821,72.5455 62.3821,74.8789 64,77.5C 64.6141,73.5253 65.7808,69.8586 67.5,66.5C 66.7929,69.7861 66.4595,73.1194 66.5,76.5C 60.7052,85.2238 57.3719,84.2238 56.5,73.5C 54.9713,74.7629 53.3046,75.7629 51.5,76.5C 49.516,77.1557 47.516,77.8224 45.5,78.5C 44.5581,78.3918 43.7247,78.0585 43,77.5C 41.7244,68.2124 41.2244,58.8791 41.5,49.5 Z"/></g>
<g><path style="opacity:1" fill="#8bbddd" d="M 116.5,70.5 C 116.5,70.8333 116.5,71.1667 116.5,71.5C 115.624,74.7989 115.457,78.1322 116,81.5C 117.659,82.8168 118.826,84.4835 119.5,86.5C 124.217,88.7774 128.217,91.9441 131.5,96C 136.914,98.2554 141.914,101.255 146.5,105C 156.51,110.842 167.176,115.009 178.5,117.5C 183.828,116.449 188.828,114.782 193.5,112.5C 193.968,108.058 192.968,104.058 190.5,100.5C 193.091,101.254 194.924,102.921 196,105.5C 197.105,110.059 195.771,113.726 192,116.5C 187.743,117.906 183.576,119.239 179.5,120.5C 177.435,120.517 175.435,120.85 173.5,121.5C 171.021,118.791 168.021,118.124 164.5,119.5C 159.226,117.269 153.893,115.103 148.5,113C 138.657,107.83 129.324,101.83 120.5,95C 117.075,90.7854 113.408,86.7854 109.5,83C 109.964,80.595 110.131,78.095 110,75.5C 111.558,72.9787 113.725,71.312 116.5,70.5 Z"/></g>
<g><path style="opacity:1" fill="#213552" d="M 241.5,62.5 C 242.429,64.4359 243.763,66.1026 245.5,67.5C 246.466,69.396 246.799,71.396 246.5,73.5C 246.322,76.2165 245.822,78.8832 245,81.5C 243.121,83.5268 241.954,85.8602 241.5,88.5C 241.167,88.5 240.833,88.5 240.5,88.5C 240.167,87.5 239.5,86.8333 238.5,86.5C 237.59,84.4986 238.423,83.1653 241,82.5C 241.49,81.2068 241.657,79.8734 241.5,78.5C 238.951,78.4411 236.951,79.4411 235.5,81.5C 234.416,78.9121 232.749,76.7455 230.5,75C 226.82,74.6521 223.486,73.4854 220.5,71.5C 219.559,69.9505 218.893,68.2838 218.5,66.5C 218.369,65.6236 218.702,64.9569 219.5,64.5C 221.787,65.9224 224.287,66.589 227,66.5C 232.187,66.1635 237.02,64.8301 241.5,62.5 Z"/></g>
<g><path style="opacity:1" fill="#974930" d="M 69.5,70.5 C 69.3354,73.5184 69.502,76.5184 70,79.5C 75.8359,80.1673 81.3359,78.834 86.5,75.5C 87.3857,74.675 87.719,73.675 87.5,72.5C 90.0101,72.9465 92.0101,72.2798 93.5,70.5C 93.8333,70.5 94.1667,70.5 94.5,70.5C 94.5,71.1667 94.8333,71.5 95.5,71.5C 95.2178,72.7777 94.5511,73.7777 93.5,74.5C 89.282,78.4155 84.282,80.9155 78.5,82C 77.2986,82.9025 76.4652,84.0692 76,85.5C 74.4943,83.9347 72.9943,83.6014 71.5,84.5C 70.8333,84.1667 70.1667,83.8333 69.5,83.5C 69.1667,82.1667 68.8333,80.8333 68.5,79.5C 68.19,76.2869 68.5233,73.2869 69.5,70.5 Z"/></g>
<g><path style="opacity:1" fill="#b4512e" d="M 93.5,70.5 C 92.0101,72.2798 90.0101,72.9465 87.5,72.5C 87.719,73.675 87.3857,74.675 86.5,75.5C 81.3359,78.834 75.8359,80.1673 70,79.5C 69.502,76.5184 69.3354,73.5184 69.5,70.5C 70.1228,68.2895 71.1228,66.2895 72.5,64.5C 73.1174,64.3893 73.6174,64.056 74,63.5C 76.2788,67.2225 79.4455,69.8892 83.5,71.5C 86.7992,70.7904 90.1326,70.4571 93.5,70.5 Z"/></g>
<g><path style="opacity:1" fill="#bda8a3" d="M 220.5,71.5 C 223.486,73.4854 226.82,74.6521 230.5,75C 232.749,76.7455 234.416,78.9121 235.5,81.5C 236.951,79.4411 238.951,78.4411 241.5,78.5C 241.657,79.8734 241.49,81.2068 241,82.5C 238.423,83.1653 237.59,84.4986 238.5,86.5C 238.768,88.099 238.434,89.4324 237.5,90.5C 237.5,89.5 237.5,88.5 237.5,87.5C 233.833,87.5 230.167,87.5 226.5,87.5C 226.5,89.5 226.5,91.5 226.5,93.5C 225.833,91.5 225.167,89.5 224.5,87.5C 223.791,86.596 222.791,86.2627 221.5,86.5C 220.104,83.3089 219.104,79.9756 218.5,76.5C 218.436,74.4434 219.102,72.7767 220.5,71.5 Z"/></g>
<g><path style="opacity:0.992" fill="#44a28f" d="M 41.5,48.5 C 41.5,48.8333 41.5,49.1667 41.5,49.5C 41.2244,58.8791 41.7244,68.2124 43,77.5C 43.7247,78.0585 44.5581,78.3918 45.5,78.5C 47.516,77.8224 49.516,77.1557 51.5,76.5C 49.1547,79.075 46.1547,80.075 42.5,79.5C 42.2172,78.7109 41.7172,78.0442 41,77.5C 40.1754,67.6578 40.342,57.9911 41.5,48.5 Z"/></g>
<g><path style="opacity:0.992" fill="#9ce3df" d="M 66.5,76.5 C 66.5,77.8333 66.5,79.1667 66.5,80.5C 64.9545,81.6396 63.2879,82.6396 61.5,83.5C 59.8333,83.5 58.1667,83.5 56.5,83.5C 56.6602,81.8008 56.4935,80.1341 56,78.5C 55.4387,77.9781 54.772,77.6448 54,77.5C 51.1194,79.5239 47.9527,80.8573 44.5,81.5C 43.8333,80.8333 43.1667,80.1667 42.5,79.5C 46.1547,80.075 49.1547,79.075 51.5,76.5C 53.3046,75.7629 54.9713,74.7629 56.5,73.5C 57.3719,84.2238 60.7052,85.2238 66.5,76.5 Z"/></g>
<g><path style="opacity:1" fill="#3f6e96" d="M 132.5,71.5 C 145.581,81.0736 158.248,91.2403 170.5,102C 172.407,103.122 174.407,103.955 176.5,104.5C 177.263,105.268 178.263,105.768 179.5,106C 175.833,106.667 172.167,106.667 168.5,106C 158.341,98.1425 147.675,91.1425 136.5,85C 134.612,82.8104 132.445,80.9771 130,79.5C 129.833,78.8333 129.667,78.1667 129.5,77.5C 131.376,75.952 132.376,73.952 132.5,71.5 Z"/></g>
<g><path style="opacity:1" fill="#bdb8bb" d="M 95.5,71.5 C 95.8333,71.5 96.1667,71.5 96.5,71.5C 96.1417,75.5092 95.6417,79.5092 95,83.5C 94.7216,84.4158 94.2216,85.0825 93.5,85.5C 92.8333,85.5 92.1667,85.5 91.5,85.5C 91.4158,81.6691 92.0825,78.0025 93.5,74.5C 94.5511,73.7777 95.2178,72.7777 95.5,71.5 Z"/></g>
<g><path style="opacity:1" fill="#dea79c" d="M 93.5,74.5 C 92.0825,78.0025 91.4158,81.6691 91.5,85.5C 91.5,86.5 91.5,87.5 91.5,88.5C 89.8333,89.5 88.5,90.8333 87.5,92.5C 82.6355,92.9989 78.1355,91.9989 74,89.5C 73.2432,87.6854 72.4098,86.0188 71.5,84.5C 72.9943,83.6014 74.4943,83.9347 76,85.5C 76.4652,84.0692 77.2986,82.9025 78.5,82C 84.282,80.9155 89.282,78.4155 93.5,74.5 Z"/></g>
<g><path style="opacity:1" fill="#89d1f2" d="M 66.5,80.5 C 66.8333,80.5 67.1667,80.5 67.5,80.5C 67.5,82.1667 67.5,83.8333 67.5,85.5C 65.863,87.4752 64.1964,89.4752 62.5,91.5C 60.1644,93.0038 58.331,95.0038 57,97.5C 56.6667,96.5 56.3333,95.5 56,94.5C 55.3333,93.1667 54.6667,93.1667 54,94.5C 53.4502,102.236 53.9502,109.903 55.5,117.5C 55.6716,118.492 55.3382,119.158 54.5,119.5C 53.9573,116.782 53.2906,114.115 52.5,111.5C 51.8663,105.504 51.6997,99.5036 52,93.5C 54.7312,89.6058 57.8978,86.2725 61.5,83.5C 63.2879,82.6396 64.9545,81.6396 66.5,80.5 Z"/></g>
<g><path style="opacity:1" fill="#65444c" d="M 68.5,79.5 C 68.8333,80.8333 69.1667,82.1667 69.5,83.5C 69.7633,87.6002 69.4299,91.6002 68.5,95.5C 68.5,95.8333 68.5,96.1667 68.5,96.5C 68.1667,96.5 67.8333,96.5 67.5,96.5C 67.5,95.8333 67.5,95.1667 67.5,94.5C 67.5,91.5 67.5,88.5 67.5,85.5C 67.5,83.8333 67.5,82.1667 67.5,80.5C 67.5,79.8333 67.8333,79.5 68.5,79.5 Z"/></g>
<g><path style="opacity:1" fill="#6599c0" d="M 131.5,70.5 C 132.167,70.5 132.5,70.8333 132.5,71.5C 132.376,73.952 131.376,75.952 129.5,77.5C 129.667,78.1667 129.833,78.8333 130,79.5C 132.445,80.9771 134.612,82.8104 136.5,85C 147.675,91.1425 158.341,98.1425 168.5,106C 172.167,106.667 175.833,106.667 179.5,106C 178.263,105.768 177.263,105.268 176.5,104.5C 179.692,104.595 182.692,103.929 185.5,102.5C 188.761,109.296 186.427,112.963 178.5,113.5C 171.065,111.59 164.399,108.09 158.5,103C 144.669,97.4877 132.503,89.3211 122,78.5C 120.632,77.0069 120.465,75.5069 121.5,74C 124.776,72.3077 128.109,71.141 131.5,70.5 Z"/></g>
<g><path style="opacity:1" fill="#9b3b41" d="M 69.5,83.5 C 70.1667,83.8333 70.8333,84.1667 71.5,84.5C 72.4098,86.0188 73.2432,87.6854 74,89.5C 78.1355,91.9989 82.6355,92.9989 87.5,92.5C 86.9423,93.7899 85.9423,94.6232 84.5,95C 79.0945,95.0837 73.7612,95.2503 68.5,95.5C 69.4299,91.6002 69.7633,87.6002 69.5,83.5 Z"/></g>
<g><path style="opacity:1" fill="#d282a9" d="M 91.5,85.5 C 92.1667,85.5 92.8333,85.5 93.5,85.5C 93.7038,88.5176 94.0371,91.5176 94.5,94.5C 92.7549,92.9674 91.7549,90.9674 91.5,88.5C 91.5,87.5 91.5,86.5 91.5,85.5 Z"/></g>
<g><path style="opacity:1" fill="#add8f4" d="M 61.5,83.5 C 57.8978,86.2725 54.7312,89.6058 52,93.5C 51.6997,99.5036 51.8663,105.504 52.5,111.5C 50.2341,111.141 48.4007,111.808 47,113.5C 45.187,112.391 44.3537,113.058 44.5,115.5C 42.3944,115.679 40.7277,116.679 39.5,118.5C 31.927,132.164 35.2603,141.997 49.5,148C 52.3931,148.273 55.0597,149.107 57.5,150.5C 60.8202,150.362 62.4869,148.695 62.5,145.5C 63.1667,144.833 63.8333,144.167 64.5,143.5C 64.3338,149.842 64.5005,156.175 65,162.5C 69.0261,165.698 72.8595,169.032 76.5,172.5C 76.5,175.167 76.5,177.833 76.5,180.5C 71.6718,181.197 68.0052,183.53 65.5,187.5C 47.2243,175.02 28.8909,162.52 10.5,150C 4.87289,144.899 1.20623,138.733 -0.5,131.5C -0.5,128.167 -0.5,124.833 -0.5,121.5C 0.979293,116.387 3.64596,111.887 7.5,108C 19.8626,99.1572 32.1959,90.3239 44.5,81.5C 47.9527,80.8573 51.1194,79.5239 54,77.5C 54.772,77.6448 55.4387,77.9781 56,78.5C 56.4935,80.1341 56.6602,81.8008 56.5,83.5C 58.1667,83.5 59.8333,83.5 61.5,83.5 Z"/></g>
<g><path style="opacity:1" fill="#9dcaea" d="M 126.5,65.5 C 127.267,66.172 127.934,67.0053 128.5,68C 124.059,66.7215 120.059,67.5548 116.5,70.5C 113.725,71.312 111.558,72.9787 110,75.5C 110.131,78.095 109.964,80.595 109.5,83C 113.408,86.7854 117.075,90.7854 120.5,95C 129.324,101.83 138.657,107.83 148.5,113C 153.893,115.103 159.226,117.269 164.5,119.5C 168.021,118.124 171.021,118.791 173.5,121.5C 168.02,123.147 163.02,125.814 158.5,129.5C 156.051,129.02 153.885,128.02 152,126.5C 150.667,127.833 149.333,127.833 148,126.5C 147.667,127.167 147.333,127.833 147,128.5C 145.5,127.667 144.333,126.5 143.5,125C 142.451,124.508 141.451,124.674 140.5,125.5C 134.619,121.412 128.619,117.579 122.5,114C 119.633,113.971 117.133,113.138 115,111.5C 112.688,111.955 110.688,112.955 109,114.5C 108.683,112.699 108.016,112.366 107,113.5C 106.208,111.413 105.041,109.579 103.5,108C 104.202,104.887 103.035,102.387 100,100.5C 100.035,94.4025 99.2019,88.2359 97.5,82C 97.6672,76.7605 100.334,73.9272 105.5,73.5C 105.561,70.9505 106.894,69.4505 109.5,69C 115.224,67.4322 120.89,66.2655 126.5,65.5 Z"/></g>
<g><path style="opacity:1" fill="#aadaf6" d="M 220.5,87.5 C 220.193,93.341 219.026,99.0077 217,104.5C 213.918,108.734 211.084,113.067 208.5,117.5C 208.167,117.5 207.833,117.5 207.5,117.5C 207.44,116.957 207.107,116.624 206.5,116.5C 204.669,117.929 202.669,118.429 200.5,118C 201.5,117.167 202.5,116.333 203.5,115.5C 201.896,113.821 201.229,111.821 201.5,109.5C 200.5,109.5 199.5,109.5 198.5,109.5C 198.328,104.823 196.328,101.156 192.5,98.5C 196.592,95.4136 199.925,91.7469 202.5,87.5C 203.158,86.6016 203.824,85.6016 204.5,84.5C 206.999,87.0668 209.166,86.7335 211,83.5C 212.726,85.2279 214.059,87.2279 215,89.5C 215.684,90.7839 215.517,91.9505 214.5,93C 215,93.5 215.5,94 216,94.5C 216.541,91.3854 218.041,89.052 220.5,87.5 Z"/></g>
<g><path style="opacity:1" fill="#7badd1" d="M 131.5,70.5 C 128.109,71.141 124.776,72.3077 121.5,74C 120.465,75.5069 120.632,77.0069 122,78.5C 132.503,89.3211 144.669,97.4877 158.5,103C 164.399,108.09 171.065,111.59 178.5,113.5C 186.427,112.963 188.761,109.296 185.5,102.5C 185.833,101.833 186.167,101.167 186.5,100.5C 187.482,99.8592 188.482,99.1925 189.5,98.5C 190.298,98.9569 190.631,99.6236 190.5,100.5C 192.968,104.058 193.968,108.058 193.5,112.5C 188.828,114.782 183.828,116.449 178.5,117.5C 167.176,115.009 156.51,110.842 146.5,105C 141.914,101.255 136.914,98.2554 131.5,96C 128.217,91.9441 124.217,88.7774 119.5,86.5C 118.826,84.4835 117.659,82.8168 116,81.5C 115.457,78.1322 115.624,74.7989 116.5,71.5C 121.493,71.0843 126.493,70.7509 131.5,70.5 Z"/></g>
<g><path style="opacity:1" fill="#f36f9f" d="M 91.5,88.5 C 91.7549,90.9674 92.7549,92.9674 94.5,94.5C 94.7989,96.604 94.4656,98.604 93.5,100.5C 90.349,103.424 89.6823,106.924 91.5,111C 91.0457,112.939 90.379,114.772 89.5,116.5C 87.1432,116.663 84.8098,116.497 82.5,116C 81.7599,114.215 81.0933,112.382 80.5,110.5C 78.5414,109.252 77.0414,107.585 76,105.5C 75.7864,108.934 76.2864,112.267 77.5,115.5C 75.1016,115.259 73.1016,115.926 71.5,117.5C 70.6618,117.158 70.3284,116.492 70.5,115.5C 70.3146,113.804 69.4813,112.471 68,111.5C 67.4117,106.472 67.5784,101.472 68.5,96.5C 68.5,96.1667 68.5,95.8333 68.5,95.5C 73.7612,95.2503 79.0945,95.0837 84.5,95C 85.9423,94.6232 86.9423,93.7899 87.5,92.5C 88.5,90.8333 89.8333,89.5 91.5,88.5 Z"/></g>
<g><path style="opacity:1" fill="#365d8f" d="M 67.5,94.5 C 67.5,95.1667 67.5,95.8333 67.5,96.5C 66.1474,99.137 65.4808,101.97 65.5,105C 66.3004,110.339 67.3004,115.506 68.5,120.5C 68.5,121.833 68.5,123.167 68.5,124.5C 66.0575,117.746 64.0575,110.746 62.5,103.5C 62.9185,99.6497 64.5852,96.6497 67.5,94.5 Z"/></g>
<g><path style="opacity:1" fill="#ac70a5" d="M 67.5,96.5 C 67.8333,96.5 68.1667,96.5 68.5,96.5C 67.5784,101.472 67.4117,106.472 68,111.5C 69.4813,112.471 70.3146,113.804 70.5,115.5C 69.8333,117.167 69.1667,118.833 68.5,120.5C 67.3004,115.506 66.3004,110.339 65.5,105C 65.4808,101.97 66.1474,99.137 67.5,96.5 Z"/></g>
<g><path style="opacity:1" fill="#2c96b0" d="M 221.5,86.5 C 222.791,86.2627 223.791,86.596 224.5,87.5C 224.277,94.8395 223.944,102.173 223.5,109.5C 220.262,114.41 216.262,118.743 211.5,122.5C 211.047,120.435 210.047,118.768 208.5,117.5C 211.084,113.067 213.918,108.734 217,104.5C 219.026,99.0077 220.193,93.341 220.5,87.5C 221.167,87.5 221.5,87.1667 221.5,86.5 Z"/></g>
<g><path style="opacity:1" fill="#3bc7ef" d="M 242.5,88.5 C 248.219,91.885 252.552,96.5517 255.5,102.5C 252.234,102.567 250.734,100.901 251,97.5C 250.617,98.056 250.117,98.3893 249.5,98.5C 249.217,97.7109 248.717,97.0442 248,96.5C 247.349,102.827 246.849,109.16 246.5,115.5C 245.013,109.938 242.846,104.604 240,99.5C 239.444,97.1152 239.61,94.7819 240.5,92.5C 241.167,91.1667 241.833,89.8333 242.5,88.5 Z"/></g>
<g><path style="opacity:1" fill="#23aed5" d="M 240.5,92.5 C 239.61,94.7819 239.444,97.1152 240,99.5C 242.846,104.604 245.013,109.938 246.5,115.5C 246.582,121.667 244.249,126.667 239.5,130.5C 234.482,134.168 228.816,136.502 222.5,137.5C 222.5,136.5 222.5,135.5 222.5,134.5C 226.784,133.067 231.118,131.567 235.5,130C 234.72,128.927 234.887,127.76 236,126.5C 239.339,125.487 239.839,124.153 237.5,122.5C 237.425,118.891 237.092,115.224 236.5,111.5C 235.575,110.359 234.741,110.359 234,111.5C 233.125,110.127 232.625,108.627 232.5,107C 234.6,101.764 237.266,96.9309 240.5,92.5 Z"/></g>
<g><path style="opacity:1" fill="#b5beb7" d="M 238.5,86.5 C 239.5,86.8333 240.167,87.5 240.5,88.5C 237.389,91.8461 234.555,95.5128 232,99.5C 229.717,104.964 228.217,110.631 227.5,116.5C 226.167,117.167 224.833,117.833 223.5,118.5C 223.5,115.5 223.5,112.5 223.5,109.5C 223.944,102.173 224.277,94.8395 224.5,87.5C 225.167,89.5 225.833,91.5 226.5,93.5C 228.068,94.4731 229.735,94.6397 231.5,94C 233.388,92.6063 235.388,91.4396 237.5,90.5C 238.434,89.4324 238.768,88.099 238.5,86.5 Z"/></g>
<g><path style="opacity:1" fill="#c3967c" d="M 237.5,90.5 C 235.388,91.4396 233.388,92.6063 231.5,94C 229.735,94.6397 228.068,94.4731 226.5,93.5C 226.5,91.5 226.5,89.5 226.5,87.5C 230.167,87.5 233.833,87.5 237.5,87.5C 237.5,88.5 237.5,89.5 237.5,90.5 Z"/></g>
<g><path style="opacity:1" fill="#b9e3fb" d="M 260.5,86.5 C 273.121,94.4016 284.954,103.402 296,113.5C 296.941,115.727 298.108,117.727 299.5,119.5C 299.5,124.167 299.5,128.833 299.5,133.5C 298.012,138.862 295.345,143.695 291.5,148C 280.977,155.425 270.31,162.591 259.5,169.5C 258.596,168.791 258.263,167.791 258.5,166.5C 261.796,166.438 262.796,165.105 261.5,162.5C 262.064,160.181 262.564,157.847 263,155.5C 263.333,155.833 263.667,156.167 264,156.5C 265.587,154.368 267.087,152.202 268.5,150C 267.586,146.745 268.753,144.245 272,142.5C 272.923,143.759 273.757,145.092 274.5,146.5C 274.833,145.667 275.167,144.833 275.5,144C 273.102,141.888 271.435,139.221 270.5,136C 271.357,135.311 272.023,134.478 272.5,133.5C 270.404,131.406 268.571,129.073 267,126.5C 266.589,122.77 265.256,119.436 263,116.5C 262.085,110.845 261.251,105.179 260.5,99.5C 260.291,98.0055 259.624,96.8388 258.5,96C 258.833,95.6667 259.167,95.3333 259.5,95C 257.308,93.6413 255.641,91.8079 254.5,89.5C 256.132,89.7615 257.299,88.7615 258,86.5C 258.977,87.7736 259.811,87.7736 260.5,86.5 Z"/></g>
<g><path style="opacity:1" fill="#df7593" d="M 94.5,94.5 C 95.4682,96.6074 95.8016,98.9407 95.5,101.5C 94.1201,101.962 93.4534,102.962 93.5,104.5C 94.1556,106.453 94.4889,108.453 94.5,110.5C 93.596,111.209 93.2627,112.209 93.5,113.5C 92.3634,114.789 91.0301,115.789 89.5,116.5C 90.379,114.772 91.0457,112.939 91.5,111C 89.6823,106.924 90.349,103.424 93.5,100.5C 94.4656,98.604 94.7989,96.604 94.5,94.5 Z"/></g>
<g><path style="opacity:1" fill="#dab3a0" d="M 95.5,101.5 C 95.5,102.167 95.8333,102.5 96.5,102.5C 97.2341,103.708 97.5674,105.041 97.5,106.5C 97.4249,109.206 97.0916,111.873 96.5,114.5C 96.1667,114.5 95.8333,114.5 95.5,114.5C 94.5655,113.432 94.2322,112.099 94.5,110.5C 94.4889,108.453 94.1556,106.453 93.5,104.5C 93.4534,102.962 94.1201,101.962 95.5,101.5 Z"/></g>
<g><path style="opacity:1" fill="#2398b9" d="M 240.5,88.5 C 240.833,88.5 241.167,88.5 241.5,88.5C 241.833,88.5 242.167,88.5 242.5,88.5C 241.833,89.8333 241.167,91.1667 240.5,92.5C 237.266,96.9309 234.6,101.764 232.5,107C 232.625,108.627 233.125,110.127 234,111.5C 234.741,110.359 235.575,110.359 236.5,111.5C 237.092,115.224 237.425,118.891 237.5,122.5C 232.902,124.799 228.235,127.132 223.5,129.5C 225.121,127.539 226.787,125.539 228.5,123.5C 227.777,121.218 227.443,118.884 227.5,116.5C 228.217,110.631 229.717,104.964 232,99.5C 234.555,95.5128 237.389,91.8461 240.5,88.5 Z"/></g>
<g><path style="opacity:1" fill="#bec8d0" d="M 97.5,122.5 C 97.1667,121.833 96.8333,121.167 96.5,120.5C 96.7373,119.209 96.404,118.209 95.5,117.5C 95.5,116.5 95.5,115.5 95.5,114.5C 95.8333,114.5 96.1667,114.5 96.5,114.5C 96.427,116.027 97.0937,117.027 98.5,117.5C 97.8386,121.517 99.1719,122.851 102.5,121.5C 103.351,115.561 101.684,110.561 97.5,106.5C 97.5674,105.041 97.2341,103.708 96.5,102.5C 96.81,101.262 97.31,101.262 98,102.5C 99.3109,105.135 100.978,107.469 103,109.5C 104.324,114.039 104.49,118.539 103.5,123C 101.402,123.678 99.4024,123.511 97.5,122.5 Z"/></g>
<g><path style="opacity:1" fill="#237cae" d="M 67.5,85.5 C 67.5,88.5 67.5,91.5 67.5,94.5C 64.5852,96.6497 62.9185,99.6497 62.5,103.5C 64.0575,110.746 66.0575,117.746 68.5,124.5C 69.5,125.833 70.5,127.167 71.5,128.5C 72.0798,130.749 73.4131,132.415 75.5,133.5C 75.2172,134.289 74.7172,134.956 74,135.5C 72.6439,134.62 71.1439,134.286 69.5,134.5C 69.2341,131.067 67.4008,129.067 64,128.5C 61.8063,123.895 60.3063,119.062 59.5,114C 60.2614,107.209 61.0948,100.375 62,93.5C 63.3803,92.7445 63.547,92.0778 62.5,91.5C 64.1964,89.4752 65.863,87.4752 67.5,85.5 Z"/></g>
<g><path style="opacity:1" fill="#e8d5bf" d="M 97.5,106.5 C 101.684,110.561 103.351,115.561 102.5,121.5C 101.549,120.081 101.216,118.415 101.5,116.5C 100.209,116.263 99.209,116.596 98.5,117.5C 97.0937,117.027 96.427,116.027 96.5,114.5C 97.0916,111.873 97.4249,109.206 97.5,106.5 Z"/></g>
<g><path style="opacity:1" fill="#db5b81" d="M 89.5,116.5 C 87.244,119.405 84.244,121.072 80.5,121.5C 78.9752,119.784 77.9752,117.784 77.5,115.5C 76.2864,112.267 75.7864,108.934 76,105.5C 77.0414,107.585 78.5414,109.252 80.5,110.5C 81.0933,112.382 81.7599,114.215 82.5,116C 84.8098,116.497 87.1432,116.663 89.5,116.5 Z"/></g>
<g><path style="opacity:1" fill="#643846" d="M 94.5,110.5 C 94.2322,112.099 94.5655,113.432 95.5,114.5C 95.5,115.5 95.5,116.5 95.5,117.5C 95.5654,117.938 95.3988,118.272 95,118.5C 94.7216,117.584 94.2216,116.918 93.5,116.5C 93.5,115.5 93.5,114.5 93.5,113.5C 93.2627,112.209 93.596,111.209 94.5,110.5 Z"/></g>
<g><path style="opacity:1" fill="#e4a697" d="M 77.5,115.5 C 77.9752,117.784 78.9752,119.784 80.5,121.5C 80.8333,122.833 81.1667,124.167 81.5,125.5C 76.1504,125.495 72.8171,122.828 71.5,117.5C 73.1016,115.926 75.1016,115.259 77.5,115.5 Z"/></g>
<g><path style="opacity:1" fill="#a6cee6" d="M 223.5,109.5 C 223.5,112.5 223.5,115.5 223.5,118.5C 223.443,119.609 223.11,120.609 222.5,121.5C 218.869,121.032 215.535,121.699 212.5,123.5C 211.893,123.376 211.56,123.043 211.5,122.5C 216.262,118.743 220.262,114.41 223.5,109.5 Z"/></g>
<g><path style="opacity:1" fill="#aeddf8" d="M 246.5,73.5 C 246.833,73.5 247.167,73.5 247.5,73.5C 248.973,74.7401 250.64,75.7401 252.5,76.5C 253.107,76.3764 253.44,76.0431 253.5,75.5C 254.167,75.5 254.833,75.5 255.5,75.5C 254.71,76.7942 253.71,77.9609 252.5,79C 254.967,81.7297 257.633,84.2297 260.5,86.5C 259.811,87.7736 258.977,87.7736 258,86.5C 257.299,88.7615 256.132,89.7615 254.5,89.5C 255.641,91.8079 257.308,93.6413 259.5,95C 259.167,95.3333 258.833,95.6667 258.5,96C 259.624,96.8388 260.291,98.0055 260.5,99.5C 261.251,105.179 262.085,110.845 263,116.5C 265.256,119.436 266.589,122.77 267,126.5C 268.571,129.073 270.404,131.406 272.5,133.5C 272.023,134.478 271.357,135.311 270.5,136C 271.435,139.221 273.102,141.888 275.5,144C 275.167,144.833 274.833,145.667 274.5,146.5C 273.757,145.092 272.923,143.759 272,142.5C 268.753,144.245 267.586,146.745 268.5,150C 267.087,152.202 265.587,154.368 264,156.5C 263.667,156.167 263.333,155.833 263,155.5C 262.564,157.847 262.064,160.181 261.5,162.5C 262.796,165.105 261.796,166.438 258.5,166.5C 258.831,158.804 258.497,151.138 257.5,143.5C 256.817,143.863 256.15,144.196 255.5,144.5C 255.67,143.178 255.337,142.011 254.5,141C 251.927,139.244 249.26,137.744 246.5,136.5C 253.854,126.424 256.854,115.091 255.5,102.5C 252.552,96.5517 248.219,91.885 242.5,88.5C 242.167,88.5 241.833,88.5 241.5,88.5C 241.954,85.8602 243.121,83.5268 245,81.5C 245.822,78.8832 246.322,76.2165 246.5,73.5 Z"/></g>
<g><path style="opacity:1" fill="#a99587" d="M 102.5,121.5 C 99.1719,122.851 97.8386,121.517 98.5,117.5C 99.209,116.596 100.209,116.263 101.5,116.5C 101.216,118.415 101.549,120.081 102.5,121.5 Z"/></g>
<g><path style="opacity:1" fill="#319dcc" d="M 62.5,91.5 C 63.547,92.0778 63.3803,92.7445 62,93.5C 61.0948,100.375 60.2614,107.209 59.5,114C 60.3063,119.062 61.8063,123.895 64,128.5C 67.4008,129.067 69.2341,131.067 69.5,134.5C 65.6381,133.476 62.8048,131.143 61,127.5C 60.7216,128.416 60.2216,129.082 59.5,129.5C 59.1394,125.085 57.8061,121.085 55.5,117.5C 53.9502,109.903 53.4502,102.236 54,94.5C 54.6667,93.1667 55.3333,93.1667 56,94.5C 56.3333,95.5 56.6667,96.5 57,97.5C 58.331,95.0038 60.1644,93.0038 62.5,91.5 Z"/></g>
<g><path style="opacity:1" fill="#f0b8c2" d="M 93.5,113.5 C 93.5,114.5 93.5,115.5 93.5,116.5C 90.6604,120.933 86.6604,123.933 81.5,125.5C 81.1667,124.167 80.8333,122.833 80.5,121.5C 84.244,121.072 87.244,119.405 89.5,116.5C 91.0301,115.789 92.3634,114.789 93.5,113.5 Z"/></g>
<g><path style="opacity:1" fill="#0881b4" d="M 249.5,98.5 C 250.822,102.255 251.822,106.088 252.5,110C 250.956,115.383 249.79,120.883 249,126.5C 248.011,129.987 245.845,132.32 242.5,133.5C 242.657,132.127 242.49,130.793 242,129.5C 241.329,130.252 240.496,130.586 239.5,130.5C 244.249,126.667 246.582,121.667 246.5,115.5C 246.849,109.16 247.349,102.827 248,96.5C 248.717,97.0442 249.217,97.7109 249.5,98.5 Z"/></g>
<g><path style="opacity:1" fill="#99c8e7" d="M 52.5,111.5 C 53.2906,114.115 53.9573,116.782 54.5,119.5C 46.2581,127.613 46.5914,135.28 55.5,142.5C 58.127,143.058 60.4604,144.058 62.5,145.5C 62.4869,148.695 60.8202,150.362 57.5,150.5C 55.0597,149.107 52.3931,148.273 49.5,148C 35.2603,141.997 31.927,132.164 39.5,118.5C 40.7277,116.679 42.3944,115.679 44.5,115.5C 44.3537,113.058 45.187,112.391 47,113.5C 48.4007,111.808 50.2341,111.141 52.5,111.5 Z"/></g>
<g><path style="opacity:1" fill="#c0bbb2" d="M 207.5,117.5 C 207.833,117.5 208.167,117.5 208.5,117.5C 210.047,118.768 211.047,120.435 211.5,122.5C 209.659,123.402 208.326,124.736 207.5,126.5C 205.012,129.199 202.012,129.865 198.5,128.5C 198.527,126.473 198.527,124.473 198.5,122.5C 201.735,121.267 204.735,119.601 207.5,117.5 Z"/></g>
<g><path style="opacity:1" fill="#8ea8c4" d="M 222.5,121.5 C 220.393,122.468 218.059,122.802 215.5,122.5C 215.5,124.833 215.5,127.167 215.5,129.5C 214.391,129.443 213.391,129.11 212.5,128.5C 210.989,127.498 209.322,126.831 207.5,126.5C 208.326,124.736 209.659,123.402 211.5,122.5C 211.56,123.043 211.893,123.376 212.5,123.5C 215.535,121.699 218.869,121.032 222.5,121.5 Z"/></g>
<g><path style="opacity:1" fill="#a17b92" d="M 70.5,115.5 C 70.3284,116.492 70.6618,117.158 71.5,117.5C 72.8171,122.828 76.1504,125.495 81.5,125.5C 86.6604,123.933 90.6604,120.933 93.5,116.5C 94.2216,116.918 94.7216,117.584 95,118.5C 95.3988,118.272 95.5654,117.938 95.5,117.5C 96.404,118.209 96.7373,119.209 96.5,120.5C 95.8501,120.196 95.1835,119.863 94.5,119.5C 91.3034,123.362 87.3034,126.028 82.5,127.5C 79.5683,127.284 76.9017,127.951 74.5,129.5C 73.4163,129.315 72.4163,128.982 71.5,128.5C 70.5,127.167 69.5,125.833 68.5,124.5C 68.5,123.167 68.5,121.833 68.5,120.5C 69.1667,118.833 69.8333,117.167 70.5,115.5 Z"/></g>
<g><path style="opacity:1" fill="#5e7e9a" d="M 227.5,116.5 C 227.443,118.884 227.777,121.218 228.5,123.5C 226.787,125.539 225.121,127.539 223.5,129.5C 222.833,129.5 222.5,129.833 222.5,130.5C 220.738,130.357 219.071,130.691 217.5,131.5C 216.478,131.145 215.811,130.478 215.5,129.5C 215.5,127.167 215.5,124.833 215.5,122.5C 218.059,122.802 220.393,122.468 222.5,121.5C 223.11,120.609 223.443,119.609 223.5,118.5C 224.833,117.833 226.167,117.167 227.5,116.5 Z"/></g>
<g><path style="opacity:1" fill="#2f9dcf" d="M 255.5,102.5 C 256.854,115.091 253.854,126.424 246.5,136.5C 245.609,137.11 244.609,137.443 243.5,137.5C 243.167,137.5 242.833,137.5 242.5,137.5C 242.5,136.167 242.5,134.833 242.5,133.5C 245.845,132.32 248.011,129.987 249,126.5C 249.79,120.883 250.956,115.383 252.5,110C 251.822,106.088 250.822,102.255 249.5,98.5C 250.117,98.3893 250.617,98.056 251,97.5C 250.734,100.901 252.234,102.567 255.5,102.5 Z"/></g>
<g><path style="opacity:1" fill="#40c2dd" d="M 237.5,122.5 C 239.839,124.153 239.339,125.487 236,126.5C 234.887,127.76 234.72,128.927 235.5,130C 231.118,131.567 226.784,133.067 222.5,134.5C 222.5,133.167 222.5,131.833 222.5,130.5C 222.5,129.833 222.833,129.5 223.5,129.5C 228.235,127.132 232.902,124.799 237.5,122.5 Z"/></g>
<g><path style="opacity:1" fill="#b5c1c9" d="M 212.5,128.5 C 213.391,129.11 214.391,129.443 215.5,129.5C 215.811,130.478 216.478,131.145 217.5,131.5C 219.071,130.691 220.738,130.357 222.5,130.5C 222.5,131.833 222.5,133.167 222.5,134.5C 222.5,135.5 222.5,136.5 222.5,137.5C 220.426,138.514 218.426,139.514 216.5,140.5C 216.795,142.735 216.461,144.735 215.5,146.5C 215.785,144.712 215.452,143.045 214.5,141.5C 208.819,140.231 208.152,137.897 212.5,134.5C 213.278,136.225 213.611,137.891 213.5,139.5C 215.5,138.833 217.5,138.167 219.5,137.5C 220.401,133.728 218.734,132.062 214.5,132.5C 213.4,131.395 212.733,130.062 212.5,128.5 Z"/></g>
<g><path style="opacity:1" fill="#d8cbc2" d="M 214.5,132.5 C 218.734,132.062 220.401,133.728 219.5,137.5C 217.5,138.167 215.5,138.833 213.5,139.5C 213.611,137.891 213.278,136.225 212.5,134.5C 212.833,133.5 213.5,132.833 214.5,132.5 Z"/></g>
<g><path style="opacity:1" fill="#9db5d5" d="M 96.5,120.5 C 96.8333,121.167 97.1667,121.833 97.5,122.5C 97.4142,123.496 97.7476,124.329 98.5,125C 102.475,127.151 106.475,128.318 110.5,128.5C 111.928,133.465 113.928,138.132 116.5,142.5C 114.418,142.528 112.584,141.861 111,140.5C 109.682,137.523 108.182,134.69 106.5,132C 101.956,129.203 97.2895,128.036 92.5,128.5C 91.2921,127.766 89.9587,127.433 88.5,127.5C 88.933,130.285 90.2663,132.619 92.5,134.5C 95.4902,135.831 98.4902,137.164 101.5,138.5C 102.705,139.577 103.372,140.91 103.5,142.5C 101.156,142.325 99.489,141.158 98.5,139C 91.0835,137.927 85.7502,134.094 82.5,127.5C 87.3034,126.028 91.3034,123.362 94.5,119.5C 95.1835,119.863 95.8501,120.196 96.5,120.5 Z"/></g>
<g><path style="opacity:1" fill="#6f84a2" d="M 92.5,128.5 C 97.2895,128.036 101.956,129.203 106.5,132C 108.182,134.69 109.682,137.523 111,140.5C 112.584,141.861 114.418,142.528 116.5,142.5C 117.167,142.5 117.5,142.833 117.5,143.5C 116.211,144.637 115.211,145.97 114.5,147.5C 114.068,148.71 113.401,149.71 112.5,150.5C 109.033,146.833 106.533,142.499 105,137.5C 101.422,133.633 97.255,130.633 92.5,128.5 Z"/></g>
<g><path style="opacity:1" fill="#705f70" d="M 240.5,137.5 C 237.378,138.982 234.378,140.649 231.5,142.5C 226.959,142.185 225.959,140.351 228.5,137C 232.405,135.641 236.405,134.808 240.5,134.5C 240.5,135.5 240.5,136.5 240.5,137.5 Z"/></g>
<g><path style="opacity:1" fill="#557a80" d="M 76.5,138.5 C 75.3052,138.322 74.1385,137.989 73,137.5C 71.022,138.906 68.8553,139.906 66.5,140.5C 66.5,140.167 66.5,139.833 66.5,139.5C 69.6261,136.085 72.9594,135.752 76.5,138.5 Z"/></g>
<g><path style="opacity:1" fill="#7a95b9" d="M 82.5,127.5 C 85.7502,134.094 91.0835,137.927 98.5,139C 99.489,141.158 101.156,142.325 103.5,142.5C 104.763,147.287 106.429,151.954 108.5,156.5C 106.475,154.804 104.475,153.137 102.5,151.5C 100.604,148.716 98.9374,145.716 97.5,142.5C 89.1236,141.825 81.7903,138.825 75.5,133.5C 73.4131,132.415 72.0798,130.749 71.5,128.5C 72.4163,128.982 73.4163,129.315 74.5,129.5C 76.9017,127.951 79.5683,127.284 82.5,127.5 Z"/></g>
<g><path style="opacity:1" fill="#e6dfaa" d="M 76.5,138.5 C 79.1667,140.833 81.8333,143.167 84.5,145.5C 79.7836,144.396 75.117,143.396 70.5,142.5C 70.5,143.5 70.5,144.5 70.5,145.5C 69.8333,145.167 69.1667,144.833 68.5,144.5C 68.5,143.833 68.1667,143.5 67.5,143.5C 65.5188,142.895 65.1854,141.895 66.5,140.5C 68.8553,139.906 71.022,138.906 73,137.5C 74.1385,137.989 75.3052,138.322 76.5,138.5 Z"/></g>
<g><path style="opacity:1" fill="#31516c" d="M 242.5,133.5 C 242.5,134.833 242.5,136.167 242.5,137.5C 241.833,137.5 241.167,137.5 240.5,137.5C 240.5,136.5 240.5,135.5 240.5,134.5C 236.405,134.808 232.405,135.641 228.5,137C 225.959,140.351 226.959,142.185 231.5,142.5C 231.5,142.833 231.5,143.167 231.5,143.5C 228.07,143.893 224.904,143.227 222,141.5C 219.856,142.844 218.023,142.51 216.5,140.5C 218.426,139.514 220.426,138.514 222.5,137.5C 228.816,136.502 234.482,134.168 239.5,130.5C 240.496,130.586 241.329,130.252 242,129.5C 242.49,130.793 242.657,132.127 242.5,133.5 Z"/></g>
<g><path style="opacity:1" fill="#7e8ea4" d="M 240.5,137.5 C 241.167,137.5 241.833,137.5 242.5,137.5C 242.833,137.5 243.167,137.5 243.5,137.5C 241.025,140.241 238.025,142.241 234.5,143.5C 233.5,143.5 232.5,143.5 231.5,143.5C 231.5,143.167 231.5,142.833 231.5,142.5C 234.378,140.649 237.378,138.982 240.5,137.5 Z"/></g>
<g><path style="opacity:1" fill="#7cb0d2" d="M 55.5,117.5 C 57.8061,121.085 59.1394,125.085 59.5,129.5C 58.4655,134.903 60.7988,138.236 66.5,139.5C 66.5,139.833 66.5,140.167 66.5,140.5C 64.9519,140.821 64.2852,141.821 64.5,143.5C 63.8333,144.167 63.1667,144.833 62.5,145.5C 60.4604,144.058 58.127,143.058 55.5,142.5C 46.5914,135.28 46.2581,127.613 54.5,119.5C 55.3382,119.158 55.6716,118.492 55.5,117.5 Z"/></g>
<g><path style="opacity:1" fill="#668aa1" d="M 76.5,138.5 C 80.792,140.794 85.4586,142.294 90.5,143C 90.1667,143.333 89.8333,143.667 89.5,144C 92.5567,145.466 95.3901,147.3 98,149.5C 98.4828,150.448 98.6495,151.448 98.5,152.5C 99.9587,152.567 101.292,152.234 102.5,151.5C 104.475,153.137 106.475,154.804 108.5,156.5C 108.5,156.833 108.5,157.167 108.5,157.5C 105.345,157.023 102.345,156.023 99.5,154.5C 95.228,152.226 91.228,149.559 87.5,146.5C 86.609,145.89 85.609,145.557 84.5,145.5C 81.8333,143.167 79.1667,140.833 76.5,138.5 Z"/></g>
<g><path style="opacity:1" fill="#daecf9" d="M 198.5,122.5 C 198.527,124.473 198.527,126.473 198.5,128.5C 202.012,129.865 205.012,129.199 207.5,126.5C 209.322,126.831 210.989,127.498 212.5,128.5C 212.733,130.062 213.4,131.395 214.5,132.5C 213.5,132.833 212.833,133.5 212.5,134.5C 208.152,137.897 208.819,140.231 214.5,141.5C 215.452,143.045 215.785,144.712 215.5,146.5C 215.371,148.216 215.038,149.883 214.5,151.5C 200.985,163.375 185.985,165.542 169.5,158C 165.434,155.492 162.1,152.325 159.5,148.5C 159.167,147.833 158.833,147.167 158.5,146.5C 156.557,137.217 159.89,130.383 168.5,126C 178.03,121.387 188.03,120.22 198.5,122.5 Z"/></g>
<g><path style="opacity:1" fill="#c4d4e4" d="M 184.5,126.5 C 189.627,130.455 194.627,134.622 199.5,139C 202.125,138.12 204.458,138.787 206.5,141C 205.167,141 203.833,141 202.5,141C 203.376,142.586 204.376,144.086 205.5,145.5C 200.949,149.698 195.782,153.031 190,155.5C 182.534,149.851 175.367,143.851 168.5,137.5C 172.593,135.246 176.927,132.579 181.5,129.5C 183.45,130.152 184.45,129.152 184.5,126.5 Z"/></g>
<g><path style="opacity:1" fill="#0e2f52" d="M 216.5,140.5 C 218.023,142.51 219.856,142.844 222,141.5C 224.904,143.227 228.07,143.893 231.5,143.5C 232.5,143.5 233.5,143.5 234.5,143.5C 227.39,149.605 219.724,154.939 211.5,159.5C 211.5,159.167 211.5,158.833 211.5,158.5C 212.957,156.372 213.957,154.038 214.5,151.5C 215.038,149.883 215.371,148.216 215.5,146.5C 216.461,144.735 216.795,142.735 216.5,140.5 Z"/></g>
<g><path style="opacity:1" fill="#b9cbe3" d="M 92.5,128.5 C 97.255,130.633 101.422,133.633 105,137.5C 106.533,142.499 109.033,146.833 112.5,150.5C 112.5,150.833 112.5,151.167 112.5,151.5C 111.911,153.352 111.244,155.185 110.5,157C 110.728,157.399 111.062,157.565 111.5,157.5C 109.957,159.557 108.957,159.557 108.5,157.5C 108.5,157.167 108.5,156.833 108.5,156.5C 106.429,151.954 104.763,147.287 103.5,142.5C 103.372,140.91 102.705,139.577 101.5,138.5C 98.4902,137.164 95.4902,135.831 92.5,134.5C 90.2663,132.619 88.933,130.285 88.5,127.5C 89.9587,127.433 91.2921,127.766 92.5,128.5 Z"/></g>
<g><path style="opacity:1" fill="#efeccf" d="M 127.5,146.5 C 124.105,149.933 120.439,150.267 116.5,147.5C 115.833,147.5 115.167,147.5 114.5,147.5C 115.211,145.97 116.211,144.637 117.5,143.5C 121.222,142.848 124.555,143.848 127.5,146.5 Z"/></g>
<g><path style="opacity:1" fill="#4e80a7" d="M 69.5,134.5 C 71.1439,134.286 72.6439,134.62 74,135.5C 74.7172,134.956 75.2172,134.289 75.5,133.5C 81.7903,138.825 89.1236,141.825 97.5,142.5C 98.9374,145.716 100.604,148.716 102.5,151.5C 101.292,152.234 99.9587,152.567 98.5,152.5C 98.6495,151.448 98.4828,150.448 98,149.5C 95.3901,147.3 92.5567,145.466 89.5,144C 89.8333,143.667 90.1667,143.333 90.5,143C 85.4586,142.294 80.792,140.794 76.5,138.5C 72.9594,135.752 69.6261,136.085 66.5,139.5C 60.7988,138.236 58.4655,134.903 59.5,129.5C 60.2216,129.082 60.7216,128.416 61,127.5C 62.8048,131.143 65.6381,133.476 69.5,134.5 Z"/></g>
<g><path style="opacity:1" fill="#a0936a" d="M 127.5,146.5 C 129.104,147.287 129.771,148.62 129.5,150.5C 128.292,151.234 126.959,151.567 125.5,151.5C 122.813,151.664 120.146,151.497 117.5,151C 116.663,149.989 116.33,148.822 116.5,147.5C 120.439,150.267 124.105,149.933 127.5,146.5 Z"/></g>
<g><path style="opacity:1" fill="#9ce2fa" d="M 246.5,136.5 C 249.26,137.744 251.927,139.244 254.5,141C 255.337,142.011 255.67,143.178 255.5,144.5C 243.306,153.093 230.972,161.426 218.5,169.5C 215.979,167.299 213.479,164.966 211,162.5C 210.53,161.423 210.697,160.423 211.5,159.5C 219.724,154.939 227.39,149.605 234.5,143.5C 238.025,142.241 241.025,140.241 243.5,137.5C 244.609,137.443 245.609,137.11 246.5,136.5 Z"/></g>
<g><path style="opacity:1" fill="#f6dc87" d="M 84.5,145.5 C 88.0791,152.395 93.7458,156.729 101.5,158.5C 104.541,160.559 107.541,162.559 110.5,164.5C 108.342,166.993 105.676,168.66 102.5,169.5C 91.8716,161.512 81.205,153.512 70.5,145.5C 70.5,144.5 70.5,143.5 70.5,142.5C 75.117,143.396 79.7836,144.396 84.5,145.5 Z"/></g>
<g><path style="opacity:1" fill="#6a6247" d="M 114.5,147.5 C 115.167,147.5 115.833,147.5 116.5,147.5C 116.33,148.822 116.663,149.989 117.5,151C 120.146,151.497 122.813,151.664 125.5,151.5C 123.485,152.924 121.152,153.59 118.5,153.5C 116.5,152.833 114.5,152.167 112.5,151.5C 112.5,151.167 112.5,150.833 112.5,150.5C 113.401,149.71 114.068,148.71 114.5,147.5 Z"/></g>
<g><path style="opacity:1" fill="#ecdfa6" d="M 84.5,145.5 C 85.609,145.557 86.609,145.89 87.5,146.5C 90.008,151.324 94.008,154.324 99.5,155.5C 102.713,158.274 106.38,160.274 110.5,161.5C 112.85,163.213 113.85,165.547 113.5,168.5C 112.143,167.41 111.143,166.076 110.5,164.5C 107.541,162.559 104.541,160.559 101.5,158.5C 93.7458,156.729 88.0791,152.395 84.5,145.5 Z"/></g>
<g><path style="opacity:1" fill="#a68d52" d="M 68.5,144.5 C 69.1667,144.833 69.8333,145.167 70.5,145.5C 81.205,153.512 91.8716,161.512 102.5,169.5C 104.371,173.866 105.038,178.533 104.5,183.5C 104.5,184.833 104.5,186.167 104.5,187.5C 103.209,187.737 102.209,187.404 101.5,186.5C 101.461,185.417 101.127,184.417 100.5,183.5C 96.9225,181.926 93.5892,179.926 90.5,177.5C 89.2147,174.979 88.5481,172.313 88.5,169.5C 87.325,169.719 86.325,169.386 85.5,168.5C 84.9852,165.257 83.6519,162.424 81.5,160C 77.5033,160.772 74.0033,159.605 71,156.5C 69.0111,152.747 68.1778,148.747 68.5,144.5 Z"/></g>
<g><path style="opacity:1" fill="#dadfbf" d="M 87.5,146.5 C 91.228,149.559 95.228,152.226 99.5,154.5C 99.5,154.833 99.5,155.167 99.5,155.5C 94.008,154.324 90.008,151.324 87.5,146.5 Z"/></g>
<g><path style="opacity:1" fill="#4f7576" d="M 129.5,150.5 C 129.249,152.17 128.582,153.67 127.5,155C 125.19,155.497 122.857,155.663 120.5,155.5C 120.167,155.5 119.833,155.5 119.5,155.5C 119.167,154.833 118.833,154.167 118.5,153.5C 121.152,153.59 123.485,152.924 125.5,151.5C 126.959,151.567 128.292,151.234 129.5,150.5 Z"/></g>
<g><path style="opacity:1" fill="#dfd2c3" d="M 112.5,151.5 C 114.5,152.167 116.5,152.833 118.5,153.5C 118.833,154.167 119.167,154.833 119.5,155.5C 119.5,156.167 119.167,156.5 118.5,156.5C 116.244,156.398 113.911,156.732 111.5,157.5C 111.062,157.565 110.728,157.399 110.5,157C 111.244,155.185 111.911,153.352 112.5,151.5 Z"/></g>
<g><path style="opacity:1" fill="#a08c5d" d="M 67.5,143.5 C 68.1667,143.5 68.5,143.833 68.5,144.5C 68.1778,148.747 69.0111,152.747 71,156.5C 74.0033,159.605 77.5033,160.772 81.5,160C 83.6519,162.424 84.9852,165.257 85.5,168.5C 86.325,169.386 87.325,169.719 88.5,169.5C 88.5481,172.313 89.2147,174.979 90.5,177.5C 93.5892,179.926 96.9225,181.926 100.5,183.5C 101.127,184.417 101.461,185.417 101.5,186.5C 99.5183,186.005 97.5183,185.505 95.5,185C 93.8863,182.873 91.8863,181.373 89.5,180.5C 88.1667,179.833 87.1667,178.833 86.5,177.5C 85.9717,176.279 85.305,175.113 84.5,174C 78.7834,170.887 73.9501,166.72 70,161.5C 68.0503,155.679 67.217,149.679 67.5,143.5 Z"/></g>
<g><path style="opacity:0.999" fill="#6cb4e1" d="M 299.5,133.5 C 299.5,141.833 299.5,150.167 299.5,158.5C 298.182,160.751 296.516,162.751 294.5,164.5C 294.631,163.761 294.464,163.094 294,162.5C 290.667,164.5 288,167.167 286,170.5C 285.667,169.833 285.333,169.167 285,168.5C 280.988,171.621 278.988,170.954 279,166.5C 277.301,167.406 275.467,167.739 273.5,167.5C 273.762,166.022 273.429,164.689 272.5,163.5C 272.167,163.667 271.833,163.833 271.5,164C 266.498,167.347 261.831,171.013 257.5,175C 254.196,178.819 250.53,181.986 246.5,184.5C 246.343,183.127 246.51,181.793 247,180.5C 250.446,175.88 254.612,172.213 259.5,169.5C 270.31,162.591 280.977,155.425 291.5,148C 295.345,143.695 298.012,138.862 299.5,133.5 Z"/></g>
<g><path style="opacity:1" fill="#948d6d" d="M 66.5,140.5 C 65.1854,141.895 65.5188,142.895 67.5,143.5C 67.217,149.679 68.0503,155.679 70,161.5C 73.9501,166.72 78.7834,170.887 84.5,174C 85.305,175.113 85.9717,176.279 86.5,177.5C 83.3388,176.087 80.3388,174.42 77.5,172.5C 77.1667,172.5 76.8333,172.5 76.5,172.5C 72.8595,169.032 69.0261,165.698 65,162.5C 64.5005,156.175 64.3338,149.842 64.5,143.5C 64.2852,141.821 64.9519,140.821 66.5,140.5 Z"/></g>
<g><path style="opacity:1" fill="#8e908c" d="M 99.5,155.5 C 99.5,155.167 99.5,154.833 99.5,154.5C 102.345,156.023 105.345,157.023 108.5,157.5C 108.957,159.557 109.957,159.557 111.5,157.5C 113.911,156.732 116.244,156.398 118.5,156.5C 116.178,158.664 113.511,160.331 110.5,161.5C 106.38,160.274 102.713,158.274 99.5,155.5 Z"/></g>
<g><path style="opacity:1" fill="#b5ddf8" d="M 120.5,156.5 C 123.436,158.656 126.603,158.99 130,157.5C 131.512,159.957 132.846,159.957 134,157.5C 134.853,159.125 135.853,159.458 137,158.5C 138.682,163.854 140.515,168.854 142.5,173.5C 144.199,173.34 145.866,173.506 147.5,174C 147.167,174.333 146.833,174.667 146.5,175C 149.527,178.217 152.193,181.717 154.5,185.5C 158.513,189.568 163.346,192.234 169,193.5C 172.187,192.413 175.353,192.58 178.5,194C 177.304,194.654 177.304,195.154 178.5,195.5C 179.446,195.013 180.446,194.68 181.5,194.5C 184.782,195.488 188.115,196.154 191.5,196.5C 191.413,199.598 191.913,199.932 193,197.5C 194.419,198.46 195.919,199.293 197.5,200C 198.218,201.987 199.218,203.821 200.5,205.5C 198.585,207.071 197.585,209.071 197.5,211.5C 197.167,211.5 196.833,211.5 196.5,211.5C 193.021,211.996 189.687,212.996 186.5,214.5C 185.468,212.96 184.135,212.46 182.5,213C 181.359,213.741 181.359,214.575 182.5,215.5C 181.711,217.488 180.545,217.821 179,216.5C 179.306,212.403 177.806,209.237 174.5,207C 177.266,205.431 177.932,203.264 176.5,200.5C 173.609,199.994 170.942,198.994 168.5,197.5C 166.888,198.549 165.888,200.049 165.5,202C 167.429,203.694 168.429,205.861 168.5,208.5C 167.07,208.421 165.736,208.754 164.5,209.5C 159.941,206.95 155.941,203.617 152.5,199.5C 153.383,197.257 152.549,195.59 150,194.5C 147.958,194.818 145.791,194.985 143.5,195C 142.897,196.825 142.23,198.659 141.5,200.5C 140.158,202.005 138.492,202.672 136.5,202.5C 136.5,204.5 136.5,206.5 136.5,208.5C 134.5,208.5 132.5,208.5 130.5,208.5C 130.508,214.208 130.008,214.541 129,209.5C 126.549,211.131 126.049,212.964 127.5,215C 125.438,216.532 124.104,218.532 123.5,221C 122.167,221.667 120.833,221.667 119.5,221C 116.714,219.499 114.047,217.999 111.5,216.5C 111.511,214.983 112.177,213.816 113.5,213C 112.833,212.667 112.167,212.333 111.5,212C 114.26,210.556 116.093,208.389 117,205.5C 117.333,205.833 117.667,206.167 118,206.5C 121.644,200.639 121.978,194.639 119,188.5C 118.667,189.167 118.333,189.833 118,190.5C 116.488,189.743 115.154,188.743 114,187.5C 113.667,187.833 113.333,188.167 113,188.5C 112.768,187.263 112.268,186.263 111.5,185.5C 111.5,185.167 111.5,184.833 111.5,184.5C 114.575,181.545 118.075,179.211 122,177.5C 121.662,172.467 120.829,167.467 119.5,162.5C 120.348,160.591 120.682,158.591 120.5,156.5 Z"/></g>
<g><path style="opacity:1" fill="#c3dcec" d="M 119.5,155.5 C 119.833,155.5 120.167,155.5 120.5,155.5C 120.5,155.833 120.5,156.167 120.5,156.5C 120.682,158.591 120.348,160.591 119.5,162.5C 120.829,167.467 121.662,172.467 122,177.5C 118.075,179.211 114.575,181.545 111.5,184.5C 111.343,183.127 111.51,181.793 112,180.5C 115.067,178.899 117.567,176.732 119.5,174C 118.272,171.27 116.272,169.436 113.5,168.5C 113.85,165.547 112.85,163.213 110.5,161.5C 113.511,160.331 116.178,158.664 118.5,156.5C 119.167,156.5 119.5,156.167 119.5,155.5 Z"/></g>
<g><path style="opacity:1" fill="#8ab7dc" d="M 258.5,166.5 C 258.263,167.791 258.596,168.791 259.5,169.5C 254.612,172.213 250.446,175.88 247,180.5C 246.51,181.793 246.343,183.127 246.5,184.5C 246.158,185.338 245.492,185.672 244.5,185.5C 244.157,183.775 243.157,183.275 241.5,184C 237.097,186.623 235.431,190.457 236.5,195.5C 239.669,194.998 242.002,193.331 243.5,190.5C 244.043,190.56 244.376,190.893 244.5,191.5C 242.603,196.036 239.436,197.369 235,195.5C 234.178,193.212 233.511,190.878 233,188.5C 228.463,191.321 223.63,193.821 218.5,196C 216.341,197.059 214.674,198.559 213.5,200.5C 212.272,198.99 212.272,197.49 213.5,196C 212.552,195.517 211.552,195.351 210.5,195.5C 210.227,193.549 210.893,192.049 212.5,191C 211.177,190.184 210.511,189.017 210.5,187.5C 212.615,189.891 215.281,191.224 218.5,191.5C 218.5,184.167 218.5,176.833 218.5,169.5C 230.972,161.426 243.306,153.093 255.5,144.5C 256.15,144.196 256.817,143.863 257.5,143.5C 258.497,151.138 258.831,158.804 258.5,166.5 Z"/></g>
<g><path style="opacity:1" fill="#87accb" d="M 159.5,148.5 C 162.1,152.325 165.434,155.492 169.5,158C 185.985,165.542 200.985,163.375 214.5,151.5C 213.957,154.038 212.957,156.372 211.5,158.5C 209.81,158.856 208.81,159.856 208.5,161.5C 207.395,162.6 206.062,163.267 204.5,163.5C 193.477,167.424 182.477,167.424 171.5,163.5C 167.878,161.213 164.545,158.547 161.5,155.5C 161.158,154.662 160.492,154.328 159.5,154.5C 158.709,152.309 158.709,150.309 159.5,148.5 Z"/></g>
<g><path style="opacity:1" fill="#3a464e" d="M 208.5,161.5 C 209.487,166.305 209.821,171.305 209.5,176.5C 207.833,175.833 206.167,175.167 204.5,174.5C 204.082,173.778 203.416,173.278 202.5,173C 203.432,169.915 204.099,166.748 204.5,163.5C 206.062,163.267 207.395,162.6 208.5,161.5 Z"/></g>
<g><path style="opacity:1" fill="#378fc4" d="M -0.5,131.5 C 1.20623,138.733 4.87289,144.899 10.5,150C 28.8909,162.52 47.2243,175.02 65.5,187.5C 68.5448,190.547 71.8781,193.213 75.5,195.5C 70.3101,192.075 64.6435,189.408 58.5,187.5C 57.5,185.833 56.1667,184.5 54.5,183.5C 53.549,184.326 52.549,184.492 51.5,184C 50.1407,181.666 48.3074,179.833 46,178.5C 42.6507,182.813 41.1507,182.146 41.5,176.5C 37.6382,177.984 35.1382,176.651 34,172.5C 33.9053,178.38 32.072,179.047 28.5,174.5C 29.8303,171.151 29.3303,170.818 27,173.5C 26.5581,171.321 25.5581,170.655 24,171.5C 24.9845,169.402 24.6511,167.402 23,165.5C 21.5421,164.253 20.0421,164.253 18.5,165.5C 15.8963,162.838 14.0629,160.172 13,157.5C 7.1361,160.276 7.1361,163.942 13,168.5C 14.0086,170.025 14.5086,171.692 14.5,173.5C 7.33265,168.809 2.33265,162.475 -0.5,154.5C -0.5,146.833 -0.5,139.167 -0.5,131.5 Z"/></g>
<g><path style="opacity:1" fill="#4c6f96" d="M 171.5,163.5 C 182.477,167.424 193.477,167.424 204.5,163.5C 204.099,166.748 203.432,169.915 202.5,173C 203.416,173.278 204.082,173.778 204.5,174.5C 204.167,174.5 203.833,174.5 203.5,174.5C 201.7,173.527 199.866,172.527 198,171.5C 196.004,173.059 193.671,173.726 191,173.5C 184.863,172.563 179.03,170.73 173.5,168C 172.313,166.981 171.313,165.814 170.5,164.5C 170.624,163.893 170.957,163.56 171.5,163.5 Z"/></g>
<g><path style="opacity:1" fill="#5681a9" d="M 161.5,155.5 C 164.545,158.547 167.878,161.213 171.5,163.5C 170.957,163.56 170.624,163.893 170.5,164.5C 171.313,165.814 172.313,166.981 173.5,168C 179.03,170.73 184.863,172.563 191,173.5C 193.671,173.726 196.004,173.059 198,171.5C 199.866,172.527 201.7,173.527 203.5,174.5C 192.107,179.56 180.441,179.726 168.5,175C 161.718,170.605 158.885,164.438 160,156.5C 160.383,155.944 160.883,155.611 161.5,155.5 Z"/></g>
<g><path style="opacity:1" fill="#d0b264" d="M 110.5,164.5 C 111.143,166.076 112.143,167.41 113.5,168.5C 114.458,169.962 115.624,171.295 117,172.5C 117.667,173.5 117.667,174.5 117,175.5C 115.22,176.594 113.386,177.594 111.5,178.5C 110.137,181.52 107.804,183.186 104.5,183.5C 105.038,178.533 104.371,173.866 102.5,169.5C 105.676,168.66 108.342,166.993 110.5,164.5 Z"/></g>
<g><path style="opacity:1" fill="#6894b9" d="M 159.5,154.5 C 160.492,154.328 161.158,154.662 161.5,155.5C 160.883,155.611 160.383,155.944 160,156.5C 158.885,164.438 161.718,170.605 168.5,175C 180.441,179.726 192.107,179.56 203.5,174.5C 203.833,174.5 204.167,174.5 204.5,174.5C 206.167,175.167 207.833,175.833 209.5,176.5C 209.5,176.833 209.5,177.167 209.5,177.5C 207.833,177.5 206.167,177.5 204.5,177.5C 191.329,181.851 178.329,181.351 165.5,176C 162.873,173.22 160.373,170.386 158,167.5C 156.978,162.871 157.478,158.538 159.5,154.5 Z"/></g>
<g><path style="opacity:1" fill="#7fadcf" d="M 159.5,154.5 C 157.478,158.538 156.978,162.871 158,167.5C 160.373,170.386 162.873,173.22 165.5,176C 178.329,181.351 191.329,181.851 204.5,177.5C 203.025,179.41 201.025,180.576 198.5,181C 185.993,183.952 173.993,182.619 162.5,177C 156.246,171.169 154.08,164.002 156,155.5C 157.011,154.663 158.178,154.33 159.5,154.5 Z"/></g>
<g><path style="opacity:1" fill="#c1b17c" d="M 113.5,168.5 C 116.272,169.436 118.272,171.27 119.5,174C 117.567,176.732 115.067,178.899 112,180.5C 111.51,181.793 111.343,183.127 111.5,184.5C 109.249,185.695 106.915,186.695 104.5,187.5C 104.5,186.167 104.5,184.833 104.5,183.5C 107.804,183.186 110.137,181.52 111.5,178.5C 113.386,177.594 115.22,176.594 117,175.5C 117.667,174.5 117.667,173.5 117,172.5C 115.624,171.295 114.458,169.962 113.5,168.5 Z"/></g>
<g><path style="opacity:1" fill="#55769a" d="M 77.5,175.5 C 78.1646,177.369 78.8313,179.369 79.5,181.5C 80.3333,180.5 81.1667,179.5 82,178.5C 85.5952,181.479 89.0952,184.645 92.5,188C 94.3453,189.128 96.3453,189.628 98.5,189.5C 98.1872,193.042 98.5206,196.375 99.5,199.5C 99.1034,200.525 98.4368,200.692 97.5,200C 91.2683,195.439 84.7683,191.272 78,187.5C 78.1085,186.369 78.6085,185.369 79.5,184.5C 79.5177,182.627 79.0177,182.294 78,183.5C 77.5026,180.854 77.3359,178.187 77.5,175.5 Z"/></g>
<g><path style="opacity:1" fill="#399cd2" d="M 211.5,158.5 C 211.5,158.833 211.5,159.167 211.5,159.5C 210.697,160.423 210.53,161.423 211,162.5C 213.479,164.966 215.979,167.299 218.5,169.5C 218.5,176.833 218.5,184.167 218.5,191.5C 215.281,191.224 212.615,189.891 210.5,187.5C 209.586,184.272 209.253,180.939 209.5,177.5C 209.5,177.167 209.5,176.833 209.5,176.5C 209.821,171.305 209.487,166.305 208.5,161.5C 208.81,159.856 209.81,158.856 211.5,158.5 Z"/></g>
<g><path style="opacity:1" fill="#9ac8e6" d="M 158.5,146.5 C 158.833,147.167 159.167,147.833 159.5,148.5C 158.709,150.309 158.709,152.309 159.5,154.5C 158.178,154.33 157.011,154.663 156,155.5C 154.08,164.002 156.246,171.169 162.5,177C 173.993,182.619 185.993,183.952 198.5,181C 201.025,180.576 203.025,179.41 204.5,177.5C 206.167,177.5 207.833,177.5 209.5,177.5C 209.253,180.939 209.586,184.272 210.5,187.5C 210.511,189.017 211.177,190.184 212.5,191C 210.893,192.049 210.227,193.549 210.5,195.5C 211.552,195.351 212.552,195.517 213.5,196C 212.272,197.49 212.272,198.99 213.5,200.5C 210.833,202.5 208.167,204.5 205.5,206.5C 205.099,205.009 204.932,203.342 205,201.5C 203.294,198.15 201.461,194.816 199.5,191.5C 198.914,191.709 198.414,192.043 198,192.5C 195.335,189.738 192.335,189.071 189,190.5C 185.445,190.311 182.279,189.144 179.5,187C 170.075,186.369 161.909,182.869 155,176.5C 152.705,170.003 152.039,163.336 153,156.5C 153.953,154.545 155.287,152.878 157,151.5C 157.198,149.618 157.698,147.952 158.5,146.5 Z"/></g>
<g><path style="opacity:1" fill="#8a8c81" d="M 89.5,180.5 C 91.8863,181.373 93.8863,182.873 95.5,185C 97.5183,185.505 99.5183,186.005 101.5,186.5C 102.209,187.404 103.209,187.737 104.5,187.5C 106.915,186.695 109.249,185.695 111.5,184.5C 111.5,184.833 111.5,185.167 111.5,185.5C 111.5,185.833 111.5,186.167 111.5,186.5C 102.756,190.498 95.4223,188.498 89.5,180.5 Z"/></g>
<g><path style="opacity:1" fill="#194169" d="M 244.5,185.5 C 244.634,187.292 244.301,188.958 243.5,190.5C 242.002,193.331 239.669,194.998 236.5,195.5C 235.431,190.457 237.097,186.623 241.5,184C 243.157,183.275 244.157,183.775 244.5,185.5 Z"/></g>
<g><path style="opacity:1" fill="#acd4f0" d="M 123.5,63.5 C 124.71,63.9321 125.71,64.5987 126.5,65.5C 120.89,66.2655 115.224,67.4322 109.5,69C 106.894,69.4505 105.561,70.9505 105.5,73.5C 100.334,73.9272 97.6672,76.7605 97.5,82C 99.2019,88.2359 100.035,94.4025 100,100.5C 103.035,102.387 104.202,104.887 103.5,108C 105.041,109.579 106.208,111.413 107,113.5C 108.016,112.366 108.683,112.699 109,114.5C 110.688,112.955 112.688,111.955 115,111.5C 117.133,113.138 119.633,113.971 122.5,114C 128.619,117.579 134.619,121.412 140.5,125.5C 141.451,124.674 142.451,124.508 143.5,125C 144.333,126.5 145.5,127.667 147,128.5C 147.333,127.833 147.667,127.167 148,126.5C 149.333,127.833 150.667,127.833 152,126.5C 153.885,128.02 156.051,129.02 158.5,129.5C 163.02,125.814 168.02,123.147 173.5,121.5C 175.435,120.85 177.435,120.517 179.5,120.5C 184.859,120.33 190.192,119.83 195.5,119C 196.5,118 197.5,117 198.5,116C 197.395,113.88 197.395,111.713 198.5,109.5C 199.5,109.5 200.5,109.5 201.5,109.5C 201.229,111.821 201.896,113.821 203.5,115.5C 202.5,116.333 201.5,117.167 200.5,118C 202.669,118.429 204.669,117.929 206.5,116.5C 207.107,116.624 207.44,116.957 207.5,117.5C 204.735,119.601 201.735,121.267 198.5,122.5C 188.03,120.22 178.03,121.387 168.5,126C 159.89,130.383 156.557,137.217 158.5,146.5C 157.698,147.952 157.198,149.618 157,151.5C 155.287,152.878 153.953,154.545 153,156.5C 152.039,163.336 152.705,170.003 155,176.5C 161.909,182.869 170.075,186.369 179.5,187C 182.279,189.144 185.445,190.311 189,190.5C 192.335,189.071 195.335,189.738 198,192.5C 198.414,192.043 198.914,191.709 199.5,191.5C 201.461,194.816 203.294,198.15 205,201.5C 204.932,203.342 205.099,205.009 205.5,206.5C 202.833,208.167 200.167,209.833 197.5,211.5C 197.585,209.071 198.585,207.071 200.5,205.5C 199.218,203.821 198.218,201.987 197.5,200C 195.919,199.293 194.419,198.46 193,197.5C 191.913,199.932 191.413,199.598 191.5,196.5C 188.115,196.154 184.782,195.488 181.5,194.5C 180.446,194.68 179.446,195.013 178.5,195.5C 177.304,195.154 177.304,194.654 178.5,194C 175.353,192.58 172.187,192.413 169,193.5C 163.346,192.234 158.513,189.568 154.5,185.5C 152.193,181.717 149.527,178.217 146.5,175C 146.833,174.667 147.167,174.333 147.5,174C 145.866,173.506 144.199,173.34 142.5,173.5C 140.515,168.854 138.682,163.854 137,158.5C 135.853,159.458 134.853,159.125 134,157.5C 132.846,159.957 131.512,159.957 130,157.5C 126.603,158.99 123.436,158.656 120.5,156.5C 120.5,156.167 120.5,155.833 120.5,155.5C 122.857,155.663 125.19,155.497 127.5,155C 128.582,153.67 129.249,152.17 129.5,150.5C 129.771,148.62 129.104,147.287 127.5,146.5C 124.555,143.848 121.222,142.848 117.5,143.5C 117.5,142.833 117.167,142.5 116.5,142.5C 113.928,138.132 111.928,133.465 110.5,128.5C 106.475,128.318 102.475,127.151 98.5,125C 97.7476,124.329 97.4142,123.496 97.5,122.5C 99.4024,123.511 101.402,123.678 103.5,123C 104.49,118.539 104.324,114.039 103,109.5C 100.978,107.469 99.3109,105.135 98,102.5C 97.31,101.262 96.81,101.262 96.5,102.5C 95.8333,102.5 95.5,102.167 95.5,101.5C 95.8016,98.9407 95.4682,96.6074 94.5,94.5C 94.0371,91.5176 93.7038,88.5176 93.5,85.5C 94.2216,85.0825 94.7216,84.4158 95,83.5C 95.6417,79.5092 96.1417,75.5092 96.5,71.5C 96.5,71.1667 96.5,70.8333 96.5,70.5C 96.8333,70.5 97.1667,70.5 97.5,70.5C 100.216,70.3215 102.883,69.8215 105.5,69C 110.72,64.6939 116.72,62.8606 123.5,63.5 Z"/></g>
<g><path style="opacity:1" fill="#b5e0f9" d="M 196.5,211.5 C 185.136,221.848 171.802,227.848 156.5,229.5C 137.209,230.955 119.876,225.955 104.5,214.5C 104.414,213.504 104.748,212.671 105.5,212C 107.101,211.727 108.601,211.227 110,210.5C 110.456,211.744 109.956,212.577 108.5,213C 109.163,214.518 110.163,215.685 111.5,216.5C 114.047,217.999 116.714,219.499 119.5,221C 120.833,221.667 122.167,221.667 123.5,221C 124.104,218.532 125.438,216.532 127.5,215C 126.049,212.964 126.549,211.131 129,209.5C 130.008,214.541 130.508,214.208 130.5,208.5C 132.5,208.5 134.5,208.5 136.5,208.5C 136.5,206.5 136.5,204.5 136.5,202.5C 138.492,202.672 140.158,202.005 141.5,200.5C 142.23,198.659 142.897,196.825 143.5,195C 145.791,194.985 147.958,194.818 150,194.5C 152.549,195.59 153.383,197.257 152.5,199.5C 155.941,203.617 159.941,206.95 164.5,209.5C 165.736,208.754 167.07,208.421 168.5,208.5C 168.429,205.861 167.429,203.694 165.5,202C 165.888,200.049 166.888,198.549 168.5,197.5C 170.942,198.994 173.609,199.994 176.5,200.5C 177.932,203.264 177.266,205.431 174.5,207C 177.806,209.237 179.306,212.403 179,216.5C 180.545,217.821 181.711,217.488 182.5,215.5C 181.359,214.575 181.359,213.741 182.5,213C 184.135,212.46 185.468,212.96 186.5,214.5C 189.687,212.996 193.021,211.996 196.5,211.5 Z"/></g>
<g><path style="opacity:1" fill="#6b87a3" d="M 77.5,172.5 C 80.3388,174.42 83.3388,176.087 86.5,177.5C 87.1667,178.833 88.1667,179.833 89.5,180.5C 95.4223,188.498 102.756,190.498 111.5,186.5C 111.662,188.527 111.495,190.527 111,192.5C 110.617,193.056 110.117,193.389 109.5,193.5C 106.47,196.014 103.137,198.014 99.5,199.5C 98.5206,196.375 98.1872,193.042 98.5,189.5C 96.3453,189.628 94.3453,189.128 92.5,188C 89.0952,184.645 85.5952,181.479 82,178.5C 81.1667,179.5 80.3333,180.5 79.5,181.5C 78.8313,179.369 78.1646,177.369 77.5,175.5C 77.5,174.5 77.5,173.5 77.5,172.5 Z"/></g>
<g><path style="opacity:1" fill="#5fa9da" d="M 294.5,164.5 C 292.372,167.13 290.039,169.63 287.5,172C 258.977,191.425 230.31,210.591 201.5,229.5C 200.866,226.001 199.033,225.001 196,226.5C 195.316,227.784 195.483,228.951 196.5,230C 192.867,228.922 190.7,230.422 190,234.5C 187.4,232.109 184.733,232.109 182,234.5C 181.833,231.667 180.333,230.167 177.5,230C 178.167,229.333 178.833,228.667 179.5,228C 175.981,226.138 172.647,226.304 169.5,228.5C 165.19,229.08 160.857,229.414 156.5,229.5C 171.802,227.848 185.136,221.848 196.5,211.5C 196.833,211.5 197.167,211.5 197.5,211.5C 200.167,209.833 202.833,208.167 205.5,206.5C 208.167,204.5 210.833,202.5 213.5,200.5C 214.674,198.559 216.341,197.059 218.5,196C 223.63,193.821 228.463,191.321 233,188.5C 233.511,190.878 234.178,193.212 235,195.5C 239.436,197.369 242.603,196.036 244.5,191.5C 244.376,190.893 244.043,190.56 243.5,190.5C 244.301,188.958 244.634,187.292 244.5,185.5C 245.492,185.672 246.158,185.338 246.5,184.5C 250.53,181.986 254.196,178.819 257.5,175C 261.831,171.013 266.498,167.347 271.5,164C 271.833,163.833 272.167,163.667 272.5,163.5C 273.429,164.689 273.762,166.022 273.5,167.5C 275.467,167.739 277.301,167.406 279,166.5C 278.988,170.954 280.988,171.621 285,168.5C 285.333,169.167 285.667,169.833 286,170.5C 288,167.167 290.667,164.5 294,162.5C 294.464,163.094 294.631,163.761 294.5,164.5 Z"/></g>
<g><path style="opacity:1" fill="#6d9dc1" d="M 76.5,172.5 C 76.8333,172.5 77.1667,172.5 77.5,172.5C 77.5,173.5 77.5,174.5 77.5,175.5C 77.3359,178.187 77.5026,180.854 78,183.5C 79.0177,182.294 79.5177,182.627 79.5,184.5C 78.6085,185.369 78.1085,186.369 78,187.5C 84.7683,191.272 91.2683,195.439 97.5,200C 98.4368,200.692 99.1034,200.525 99.5,199.5C 103.137,198.014 106.47,196.014 109.5,193.5C 106.479,201.177 100.812,205.51 92.5,206.5C 87.4151,202.744 82.0818,199.411 76.5,196.5C 76.5,195.833 76.1667,195.5 75.5,195.5C 71.8781,193.213 68.5448,190.547 65.5,187.5C 68.0052,183.53 71.6718,181.197 76.5,180.5C 76.5,177.833 76.5,175.167 76.5,172.5 Z"/></g>
<g><path style="opacity:1" fill="#a3ceeb" d="M 111.5,185.5 C 112.268,186.263 112.768,187.263 113,188.5C 113.333,188.167 113.667,187.833 114,187.5C 115.154,188.743 116.488,189.743 118,190.5C 118.333,189.833 118.667,189.167 119,188.5C 121.978,194.639 121.644,200.639 118,206.5C 117.667,206.167 117.333,205.833 117,205.5C 116.093,208.389 114.26,210.556 111.5,212C 112.167,212.333 112.833,212.667 113.5,213C 112.177,213.816 111.511,214.983 111.5,216.5C 110.163,215.685 109.163,214.518 108.5,213C 109.956,212.577 110.456,211.744 110,210.5C 108.601,211.227 107.101,211.727 105.5,212C 104.748,212.671 104.414,213.504 104.5,214.5C 100.5,211.833 96.5,209.167 92.5,206.5C 100.812,205.51 106.479,201.177 109.5,193.5C 110.117,193.389 110.617,193.056 111,192.5C 111.495,190.527 111.662,188.527 111.5,186.5C 111.5,186.167 111.5,185.833 111.5,185.5 Z"/></g>
<g><path style="opacity:0.999" fill="#2f8dc7" d="M 75.5,195.5 C 76.1667,195.5 76.5,195.833 76.5,196.5C 78.9931,200.097 82.3264,202.763 86.5,204.5C 86.0575,209.066 88.0575,212.4 92.5,214.5C 92.9106,213.738 93.0773,212.738 93,211.5C 95.0747,213.167 97.2414,215.5 99.5,218.5C 100.293,218.069 101.127,217.735 102,217.5C 103.689,218.858 105.022,220.525 106,222.5C 108.085,221.353 109.585,222.02 110.5,224.5C 112.071,225.309 113.738,225.643 115.5,225.5C 115.5,226.5 115.5,227.5 115.5,228.5C 120.033,228.02 124.2,229.353 128,232.5C 128.333,233.833 128.667,235.167 129,236.5C 133.959,236.035 138.459,237.535 142.5,241C 144.433,241.251 146.266,241.751 148,242.5C 148.414,242.043 148.914,241.709 149.5,241.5C 153.331,244.707 157.665,245.874 162.5,245C 161.833,245.333 161.167,245.667 160.5,246C 162.382,246.198 164.048,246.698 165.5,247.5C 164.833,247.5 164.5,247.833 164.5,248.5C 162.833,248.5 161.167,248.5 159.5,248.5C 150.988,247.65 142.321,246.817 133.5,246C 122.065,243.704 112.565,238.204 105,229.5C 103.991,227.975 103.491,226.308 103.5,224.5C 100.687,224.452 98.0205,223.785 95.5,222.5C 90.5564,219.574 85.5564,216.74 80.5,214C 79.4029,211.235 77.4029,209.569 74.5,209C 70.732,204.442 65.3987,201.442 58.5,200C 51.9611,193.322 44.9611,187.989 37.5,184C 38.6537,183.086 38.487,182.253 37,181.5C 33.8561,181.581 30.6894,180.748 27.5,179C 25.7193,176.763 23.7193,174.763 21.5,173C 19.1195,172.262 17.1195,172.762 15.5,174.5C 14.8333,174.5 14.5,174.167 14.5,173.5C 14.5086,171.692 14.0086,170.025 13,168.5C 7.1361,163.942 7.1361,160.276 13,157.5C 14.0629,160.172 15.8963,162.838 18.5,165.5C 20.0421,164.253 21.5421,164.253 23,165.5C 24.6511,167.402 24.9845,169.402 24,171.5C 25.5581,170.655 26.5581,171.321 27,173.5C 29.3303,170.818 29.8303,171.151 28.5,174.5C 32.072,179.047 33.9053,178.38 34,172.5C 35.1382,176.651 37.6382,177.984 41.5,176.5C 41.1507,182.146 42.6507,182.813 46,178.5C 48.3074,179.833 50.1407,181.666 51.5,184C 52.549,184.492 53.549,184.326 54.5,183.5C 56.1667,184.5 57.5,185.833 58.5,187.5C 64.6435,189.408 70.3101,192.075 75.5,195.5 Z"/></g>
<g><path style="opacity:1" fill="#3993c9" d="M 76.5,196.5 C 82.0818,199.411 87.4151,202.744 92.5,206.5C 96.5,209.167 100.5,211.833 104.5,214.5C 119.876,225.955 137.209,230.955 156.5,229.5C 160.857,229.414 165.19,229.08 169.5,228.5C 168.791,229.404 167.791,229.737 166.5,229.5C 166.36,231.124 167.027,232.29 168.5,233C 167.833,233.333 167.167,233.667 166.5,234C 167.563,235.188 168.897,235.688 170.5,235.5C 170.5,236.833 170.5,238.167 170.5,239.5C 173.205,239.38 173.872,240.38 172.5,242.5C 175.626,243.142 178.626,242.475 181.5,240.5C 182.107,240.624 182.44,240.957 182.5,241.5C 177.333,244.668 171.666,246.668 165.5,247.5C 164.048,246.698 162.382,246.198 160.5,246C 161.167,245.667 161.833,245.333 162.5,245C 157.665,245.874 153.331,244.707 149.5,241.5C 148.914,241.709 148.414,242.043 148,242.5C 146.266,241.751 144.433,241.251 142.5,241C 138.459,237.535 133.959,236.035 129,236.5C 128.667,235.167 128.333,233.833 128,232.5C 124.2,229.353 120.033,228.02 115.5,228.5C 115.5,227.5 115.5,226.5 115.5,225.5C 113.738,225.643 112.071,225.309 110.5,224.5C 109.585,222.02 108.085,221.353 106,222.5C 105.022,220.525 103.689,218.858 102,217.5C 101.127,217.735 100.293,218.069 99.5,218.5C 97.2414,215.5 95.0747,213.167 93,211.5C 93.0773,212.738 92.9106,213.738 92.5,214.5C 88.0575,212.4 86.0575,209.066 86.5,204.5C 82.3264,202.763 78.9931,200.097 76.5,196.5 Z"/></g>
<g><path style="opacity:0.993" fill="#2b83b9" d="M 159.5,248.5 C 150.5,248.5 141.5,248.5 132.5,248.5C 123.777,246.144 115.443,242.644 107.5,238C 76.947,216.604 46.2803,195.438 15.5,174.5C 17.1195,172.762 19.1195,172.262 21.5,173C 23.7193,174.763 25.7193,176.763 27.5,179C 30.6894,180.748 33.8561,181.581 37,181.5C 38.487,182.253 38.6537,183.086 37.5,184C 44.9611,187.989 51.9611,193.322 58.5,200C 65.3987,201.442 70.732,204.442 74.5,209C 77.4029,209.569 79.4029,211.235 80.5,214C 85.5564,216.74 90.5564,219.574 95.5,222.5C 98.0205,223.785 100.687,224.452 103.5,224.5C 103.491,226.308 103.991,227.975 105,229.5C 112.565,238.204 122.065,243.704 133.5,246C 142.321,246.817 150.988,247.65 159.5,248.5 Z"/></g>
<g><path style="opacity:0.999" fill="#4d9fd5" d="M 201.5,229.5 C 195.706,234.283 189.372,238.283 182.5,241.5C 182.44,240.957 182.107,240.624 181.5,240.5C 178.626,242.475 175.626,243.142 172.5,242.5C 173.872,240.38 173.205,239.38 170.5,239.5C 170.5,238.167 170.5,236.833 170.5,235.5C 168.897,235.688 167.563,235.188 166.5,234C 167.167,233.667 167.833,233.333 168.5,233C 167.027,232.29 166.36,231.124 166.5,229.5C 167.791,229.737 168.791,229.404 169.5,228.5C 172.647,226.304 175.981,226.138 179.5,228C 178.833,228.667 178.167,229.333 177.5,230C 180.333,230.167 181.833,231.667 182,234.5C 184.733,232.109 187.4,232.109 190,234.5C 190.7,230.422 192.867,228.922 196.5,230C 195.483,228.951 195.316,227.784 196,226.5C 199.033,225.001 200.866,226.001 201.5,229.5 Z"/></g>
</svg>
