<svg version="1.1" id="Layer_1" xmlns="http://www.w3.org/2000/svg" xmlns:xlink="http://www.w3.org/1999/xlink" x="0px" y="0px"
	 width="100%" viewBox="0 0 640 640" enable-background="new 0 0 640 640" xml:space="preserve">
<path fill="#3B028F" opacity="1.000000" stroke="none" 
	d="
M363.000000,641.000000 
	C242.000015,641.000000 121.500046,641.000000 1.000049,641.000000 
	C1.000032,427.666718 1.000032,214.333450 1.000016,1.000134 
	C214.333237,1.000090 427.666473,1.000090 640.999756,1.000045 
	C640.999878,214.333191 640.999878,427.666382 640.999939,640.999756 
	C548.500000,641.000000 456.000000,641.000000 363.000000,641.000000 
M366.499969,353.905243 
	C375.603912,353.905243 384.707855,353.905243 393.841644,353.905243 
	C395.503601,339.826874 393.090210,327.626862 382.051575,318.661377 
	C372.988098,311.300079 361.897583,309.289734 350.644501,309.038391 
	C334.165527,308.670410 317.658569,308.566071 301.190948,309.137817 
	C293.986389,309.387909 286.589935,310.799042 279.732971,313.056793 
	C262.520477,318.724243 253.571396,335.750916 257.755402,353.905548 
	C293.613068,353.905548 329.556488,353.905548 366.499969,353.905243 
M337.425995,302.005127 
	C358.285309,294.988586 370.554352,275.111908 366.658325,254.646698 
	C362.372406,232.133545 340.039825,217.012100 318.038483,221.726105 
	C294.663544,226.734406 279.915558,249.092453 285.313293,271.337677 
	C290.911102,294.407532 313.891663,308.225037 337.425995,302.005127 
M432.435394,314.968872 
	C409.573029,317.716705 401.462860,332.412231 404.719971,353.554260 
	C440.595795,353.554260 476.467896,353.554260 512.799316,353.554260 
	C512.799316,350.896606 512.798401,348.598602 512.799438,346.300568 
	C512.807495,328.126434 506.029419,318.798401 488.039886,315.716675 
	C476.996246,313.824829 465.511871,314.330688 454.218903,314.134186 
	C447.256805,314.013062 440.282440,314.596436 432.435394,314.968872 
M172.747574,314.100616 
	C169.779266,314.479950 166.795868,314.767517 163.845108,315.253387 
	C142.898102,318.702515 135.426453,333.850922 138.777100,353.582764 
	C174.634872,353.582764 210.494644,353.582764 246.303864,353.582764 
	C249.670425,331.143677 240.012253,317.331818 218.041153,315.144135 
	C203.369705,313.683319 188.485916,314.355164 172.747574,314.100616 
M467.962494,248.117218 
	C467.165558,247.882690 466.374847,247.623825 465.570740,247.417267 
	C451.084534,243.696274 435.228485,251.740189 429.585052,265.667236 
	C423.573517,280.502777 429.065308,296.822205 442.860291,305.115509 
	C455.557953,312.749207 472.666382,309.614014 482.040070,297.935699 
	C496.180298,280.318909 490.190491,258.032257 467.962494,248.117218 
M171.413254,254.907288 
	C160.258804,265.386688 157.911865,280.464417 165.408875,293.481659 
	C172.440277,305.690399 187.461426,312.039337 200.442841,308.289337 
	C213.353348,304.559814 222.001877,294.163452 223.500305,280.572021 
	C224.849960,268.329834 218.016190,256.092529 206.310379,249.789902 
	C195.697479,244.075745 182.197495,245.894730 171.413254,254.907288 
z"/>
<path fill="#FDFCFE" opacity="1.000000" stroke="none" 
	d="
M365.999939,353.905396 
	C329.556488,353.905548 293.613068,353.905548 257.755402,353.905548 
	C253.571396,335.750916 262.520477,318.724243 279.732971,313.056793 
	C286.589935,310.799042 293.986389,309.387909 301.190948,309.137817 
	C317.658569,308.566071 334.165527,308.670410 350.644501,309.038391 
	C361.897583,309.289734 372.988098,311.300079 382.051575,318.661377 
	C393.090210,327.626862 395.503601,339.826874 393.841644,353.905243 
	C384.707855,353.905243 375.603912,353.905243 365.999939,353.905396 
z"/>
<path fill="#FDFCFE" opacity="1.000000" stroke="none" 
	d="
M337.032013,302.101410 
	C313.891663,308.225037 290.911102,294.407532 285.313293,271.337677 
	C279.915558,249.092453 294.663544,226.734406 318.038483,221.726105 
	C340.039825,217.012100 362.372406,232.133545 366.658325,254.646698 
	C370.554352,275.111908 358.285309,294.988586 337.032013,302.101410 
z"/>
<path fill="#FCFBFE" opacity="1.000000" stroke="none" 
	d="
M432.874512,314.916199 
	C440.282440,314.596436 447.256805,314.013062 454.218903,314.134186 
	C465.511871,314.330688 476.996246,313.824829 488.039886,315.716675 
	C506.029419,318.798401 512.807495,328.126434 512.799438,346.300568 
	C512.798401,348.598602 512.799316,350.896606 512.799316,353.554260 
	C476.467896,353.554260 440.595795,353.554260 404.719971,353.554260 
	C401.462860,332.412231 409.573029,317.716705 432.874512,314.916199 
z"/>
<path fill="#FCFBFE" opacity="1.000000" stroke="none" 
	d="
M173.222351,314.086609 
	C188.485916,314.355164 203.369705,313.683319 218.041153,315.144135 
	C240.012253,317.331818 249.670425,331.143677 246.303864,353.582764 
	C210.494644,353.582764 174.634872,353.582764 138.777100,353.582764 
	C135.426453,333.850922 142.898102,318.702515 163.845108,315.253387 
	C166.795868,314.767517 169.779266,314.479950 173.222351,314.086609 
z"/>
<path fill="#FDFCFE" opacity="1.000000" stroke="none" 
	d="
M468.343384,248.254028 
	C490.190491,258.032257 496.180298,280.318909 482.040070,297.935699 
	C472.666382,309.614014 455.557953,312.749207 442.860291,305.115509 
	C429.065308,296.822205 423.573517,280.502777 429.585052,265.667236 
	C435.228485,251.740189 451.084534,243.696274 465.570740,247.417267 
	C466.374847,247.623825 467.165558,247.882690 468.343384,248.254028 
z"/>
<path fill="#FBF9FD" opacity="1.000000" stroke="none" 
	d="
M171.671753,254.664795 
	C182.197495,245.894730 195.697479,244.075745 206.310379,249.789902 
	C218.016190,256.092529 224.849960,268.329834 223.500305,280.572021 
	C222.001877,294.163452 213.353348,304.559814 200.442841,308.289337 
	C187.461426,312.039337 172.440277,305.690399 165.408875,293.481659 
	C157.911865,280.464417 160.258804,265.386688 171.671753,254.664795 
M179.606033,299.928497 
	C181.646683,302.489502 183.830765,304.326233 187.588150,303.944946 
	C191.642105,303.533569 195.794022,304.140503 199.863693,303.812653 
	C202.621552,303.590515 206.112579,303.342102 207.849518,301.645416 
	C210.679855,298.880646 212.481750,294.996552 214.407455,291.417877 
	C214.904099,290.494995 214.612610,288.745392 214.048172,287.727722 
	C212.170334,284.342224 213.575485,283.011230 216.765625,281.930176 
	C218.220322,281.437256 220.546722,279.206024 220.343826,278.780304 
	C217.402313,272.608765 220.067139,263.017792 209.871964,261.118134 
	C208.694870,260.898804 207.788528,259.486206 206.623718,258.884003 
	C204.562225,257.818237 202.417297,256.905151 200.272812,256.010803 
	C197.649002,254.916519 195.039566,253.743332 192.328201,252.919128 
	C190.529221,252.372284 188.309311,251.696381 186.726013,252.284607 
	C183.872482,253.344788 181.355072,255.309738 178.697266,256.896790 
	C178.239014,256.473206 177.780762,256.049622 177.322510,255.626068 
	C177.322510,257.537354 177.085022,259.484406 177.366745,261.353241 
	C178.234741,267.111206 176.180695,270.026947 170.315994,270.984344 
	C166.220444,271.652924 163.425278,274.690063 164.400223,278.479553 
	C165.181656,281.516907 166.865265,284.493958 168.769135,287.032257 
	C171.988312,291.324127 175.697922,295.248169 179.606033,299.928497 
z"/>
<path fill="#FFFFFF" opacity="1.000000" stroke="none" 
	d="
M179.403687,299.627686 
	C175.697922,295.248169 171.988312,291.324127 168.769135,287.032257 
	C166.865265,284.493958 165.181656,281.516907 164.400223,278.479553 
	C163.425278,274.690063 166.220444,271.652924 170.315994,270.984344 
	C176.180695,270.026947 178.234741,267.111206 177.366745,261.353241 
	C177.085022,259.484406 177.322510,257.537354 177.322510,255.626068 
	C177.780762,256.049622 178.239014,256.473206 178.697266,256.896790 
	C181.355072,255.309738 183.872482,253.344788 186.726013,252.284607 
	C188.309311,251.696381 190.529221,252.372284 192.328201,252.919128 
	C195.039566,253.743332 197.649002,254.916519 200.272812,256.010803 
	C202.417297,256.905151 204.562225,257.818237 206.623718,258.884003 
	C207.788528,259.486206 208.694870,260.898804 209.871964,261.118134 
	C220.067139,263.017792 217.402313,272.608765 220.343826,278.780304 
	C220.546722,279.206024 218.220322,281.437256 216.765625,281.930176 
	C213.575485,283.011230 212.170334,284.342224 214.048172,287.727722 
	C214.612610,288.745392 214.904099,290.494995 214.407455,291.417877 
	C212.481750,294.996552 210.679855,298.880646 207.849518,301.645416 
	C206.112579,303.342102 202.621552,303.590515 199.863693,303.812653 
	C195.794022,304.140503 191.642105,303.533569 187.588150,303.944946 
	C183.830765,304.326233 181.646683,302.489502 179.403687,299.627686 
z"/>
</svg>